<mxfile host="app.diagrams.net" modified="2023-07-07T21:49:03.640Z" agent="Mozilla/5.0 (Windows NT 10.0; Win64; x64) AppleWebKit/537.36 (KHTML, like Gecko) Chrome/114.0.0.0 Safari/537.36" etag="tfVQ36H1y4TkyMINDke2" version="21.6.1" type="github" pages="2">
  <diagram name="Home" id="c9db0220-8083-56f3-ca83-edcdcd058819">
    <mxGraphModel dx="1434" dy="707" grid="1" gridSize="10" guides="1" tooltips="1" connect="1" arrows="1" fold="1" page="1" pageScale="1.5" pageWidth="826" pageHeight="1169" background="none" math="0" shadow="0">
      <root>
        <mxCell id="0" style=";html=1;" />
        <mxCell id="1" style=";html=1;" parent="0" />
        <mxCell id="nvD61MG68NO_hjp8TIk3-283" value="" style="rounded=1;whiteSpace=wrap;html=1;strokeColor=#0066CC;" vertex="1" parent="1">
          <mxGeometry x="40" y="145" width="550" height="40" as="geometry" />
        </mxCell>
        <mxCell id="nvD61MG68NO_hjp8TIk3-282" value="" style="rounded=1;whiteSpace=wrap;html=1;strokeColor=#0066CC;strokeWidth=6;" vertex="1" parent="1">
          <mxGeometry x="830" y="551" width="380" height="164" as="geometry" />
        </mxCell>
        <mxCell id="nvD61MG68NO_hjp8TIk3-281" value="" style="rounded=1;whiteSpace=wrap;html=1;strokeColor=#0066CC;strokeWidth=6;" vertex="1" parent="1">
          <mxGeometry x="30" y="556" width="380" height="164" as="geometry" />
        </mxCell>
        <mxCell id="nvD61MG68NO_hjp8TIk3-244" value="" style="rounded=1;whiteSpace=wrap;html=1;" vertex="1" parent="1">
          <mxGeometry x="420" y="669" width="170" height="40" as="geometry" />
        </mxCell>
        <mxCell id="nvD61MG68NO_hjp8TIk3-243" value="" style="rounded=1;whiteSpace=wrap;html=1;" vertex="1" parent="1">
          <mxGeometry x="420" y="629" width="170" height="40" as="geometry" />
        </mxCell>
        <mxCell id="nvD61MG68NO_hjp8TIk3-242" value="" style="rounded=1;whiteSpace=wrap;html=1;" vertex="1" parent="1">
          <mxGeometry x="420" y="589" width="170" height="35" as="geometry" />
        </mxCell>
        <mxCell id="3d76a8aef4d5c911-1" value="" style="html=1;shadow=0;dashed=0;shape=mxgraph.bootstrap.rect;fillColor=#222222;strokeColor=none;whiteSpace=wrap;rounded=0;fontSize=12;fontColor=#000000;align=center;" parent="1" vertex="1">
          <mxGeometry x="40" y="40" width="1160" height="80" as="geometry" />
        </mxCell>
        <mxCell id="3d76a8aef4d5c911-2" value="Sherpa&lt;br&gt;&lt;i&gt;&lt;font style=&quot;font-size: 9px;&quot;&gt;We&#39;ve got you covered&lt;/font&gt;&lt;/i&gt;" style="html=1;shadow=0;dashed=0;fillColor=none;strokeColor=none;shape=mxgraph.bootstrap.rect;fontColor=#999999;fontSize=14;whiteSpace=wrap;" parent="3d76a8aef4d5c911-1" vertex="1">
          <mxGeometry width="160" height="80" as="geometry" />
        </mxCell>
        <mxCell id="3d76a8aef4d5c911-7" value="Statistics" style="html=1;shadow=0;dashed=0;fillColor=none;strokeColor=none;shape=mxgraph.bootstrap.rect;fontColor=#999999;whiteSpace=wrap;" parent="3d76a8aef4d5c911-1" vertex="1">
          <mxGeometry x="421.0030434782609" width="116" height="80" as="geometry" />
        </mxCell>
        <mxCell id="3d76a8aef4d5c911-8" value="Settings" style="html=1;shadow=0;dashed=0;fillColor=none;strokeColor=none;shape=mxgraph.bootstrap.rect;fontColor=#999999;whiteSpace=wrap;" parent="3d76a8aef4d5c911-1" vertex="1">
          <mxGeometry x="537.0030434782608" width="101.5" height="80" as="geometry" />
        </mxCell>
        <mxCell id="3d76a8aef4d5c911-9" value="Profile" style="html=1;shadow=0;dashed=0;fillColor=none;strokeColor=none;shape=mxgraph.bootstrap.rect;fontColor=#999999;whiteSpace=wrap;" parent="3d76a8aef4d5c911-1" vertex="1">
          <mxGeometry x="957" width="101.5" height="80" as="geometry" />
        </mxCell>
        <mxCell id="3d76a8aef4d5c911-10" value="Log Out" style="html=1;shadow=0;dashed=0;fillColor=none;strokeColor=none;shape=mxgraph.bootstrap.rect;fontColor=#999999;whiteSpace=wrap;" parent="3d76a8aef4d5c911-1" vertex="1">
          <mxGeometry x="1058.5" width="101.5" height="80" as="geometry" />
        </mxCell>
        <mxCell id="nvD61MG68NO_hjp8TIk3-54" value="Callout Schedule" style="html=1;shadow=0;dashed=0;shape=mxgraph.bootstrap.rect;fillColor=#000000;strokeColor=none;fontColor=#ffffff;spacingRight=30;whiteSpace=wrap;" vertex="1" parent="3d76a8aef4d5c911-1">
          <mxGeometry x="160.00304347826085" width="130.5" height="80" as="geometry" />
        </mxCell>
        <mxCell id="nvD61MG68NO_hjp8TIk3-55" value="4" style="html=1;shadow=0;dashed=0;shape=mxgraph.bootstrap.rrect;rSize=8;fillColor=#ff0000;strokeColor=none;fontColor=#ffffff;whiteSpace=wrap;" vertex="1" parent="nvD61MG68NO_hjp8TIk3-54">
          <mxGeometry x="1" y="0.5" width="25" height="16" relative="1" as="geometry">
            <mxPoint x="-30" y="-8" as="offset" />
          </mxGeometry>
        </mxCell>
        <mxCell id="nvD61MG68NO_hjp8TIk3-56" value="Staff" style="html=1;shadow=0;dashed=0;fillColor=none;strokeColor=none;shape=mxgraph.bootstrap.rect;fontColor=#999999;whiteSpace=wrap;" vertex="1" parent="3d76a8aef4d5c911-1">
          <mxGeometry x="316.3508695652174" width="116" height="80" as="geometry" />
        </mxCell>
        <mxCell id="nvD61MG68NO_hjp8TIk3-57" value="" style="strokeWidth=1;shadow=0;dashed=0;align=center;html=1;shape=mxgraph.mockup.forms.rrect;rSize=5;strokeColor=#999999;fillColor=#ffffff;" vertex="1" parent="1">
          <mxGeometry x="40" y="200" width="360" height="280" as="geometry" />
        </mxCell>
        <mxCell id="nvD61MG68NO_hjp8TIk3-58" value="September" style="strokeWidth=1;shadow=0;dashed=0;align=center;html=1;shape=mxgraph.mockup.forms.anchor;fontColor=#999999;" vertex="1" parent="nvD61MG68NO_hjp8TIk3-57">
          <mxGeometry x="67.5" y="12.799999999999997" width="224.99999999999997" height="31.999999999999996" as="geometry" />
        </mxCell>
        <mxCell id="nvD61MG68NO_hjp8TIk3-59" value="&lt;" style="strokeWidth=1;shadow=0;dashed=0;align=center;html=1;shape=mxgraph.mockup.forms.rrect;rSize=4;strokeColor=#999999;fontColor=#008cff;fontSize=19;fontStyle=1;" vertex="1" parent="nvD61MG68NO_hjp8TIk3-57">
          <mxGeometry x="18" y="12.799999999999997" width="56.24999999999999" height="31.999999999999996" as="geometry" />
        </mxCell>
        <mxCell id="nvD61MG68NO_hjp8TIk3-60" value="&gt;" style="strokeWidth=1;shadow=0;dashed=0;align=center;html=1;shape=mxgraph.mockup.forms.rrect;rSize=4;strokeColor=#999999;fontColor=#008cff;fontSize=19;fontStyle=1;" vertex="1" parent="nvD61MG68NO_hjp8TIk3-57">
          <mxGeometry x="285.75" y="12.799999999999997" width="56.24999999999999" height="31.999999999999996" as="geometry" />
        </mxCell>
        <mxCell id="nvD61MG68NO_hjp8TIk3-61" value="Mo" style="strokeWidth=1;shadow=0;dashed=0;align=center;html=1;shape=mxgraph.mockup.forms.anchor;fontColor=#999999;" vertex="1" parent="nvD61MG68NO_hjp8TIk3-57">
          <mxGeometry x="22.5" y="44.8" width="45" height="31.999999999999996" as="geometry" />
        </mxCell>
        <mxCell id="nvD61MG68NO_hjp8TIk3-62" value="Tu" style="strokeWidth=1;shadow=0;dashed=0;align=center;html=1;shape=mxgraph.mockup.forms.anchor;fontColor=#999999;" vertex="1" parent="nvD61MG68NO_hjp8TIk3-57">
          <mxGeometry x="67.5" y="44.8" width="45" height="31.999999999999996" as="geometry" />
        </mxCell>
        <mxCell id="nvD61MG68NO_hjp8TIk3-63" value="We" style="strokeWidth=1;shadow=0;dashed=0;align=center;html=1;shape=mxgraph.mockup.forms.anchor;fontColor=#999999;" vertex="1" parent="nvD61MG68NO_hjp8TIk3-57">
          <mxGeometry x="112.49999999999999" y="44.8" width="45" height="31.999999999999996" as="geometry" />
        </mxCell>
        <mxCell id="nvD61MG68NO_hjp8TIk3-64" value="Th" style="strokeWidth=1;shadow=0;dashed=0;align=center;html=1;shape=mxgraph.mockup.forms.anchor;fontColor=#999999;" vertex="1" parent="nvD61MG68NO_hjp8TIk3-57">
          <mxGeometry x="157.5" y="44.8" width="45" height="31.999999999999996" as="geometry" />
        </mxCell>
        <mxCell id="nvD61MG68NO_hjp8TIk3-65" value="Fr" style="strokeWidth=1;shadow=0;dashed=0;align=center;html=1;shape=mxgraph.mockup.forms.anchor;fontColor=#999999;" vertex="1" parent="nvD61MG68NO_hjp8TIk3-57">
          <mxGeometry x="202.49999999999997" y="44.8" width="45" height="31.999999999999996" as="geometry" />
        </mxCell>
        <mxCell id="nvD61MG68NO_hjp8TIk3-66" value="Sa" style="strokeWidth=1;shadow=0;dashed=0;align=center;html=1;shape=mxgraph.mockup.forms.anchor;fontColor=#999999;" vertex="1" parent="nvD61MG68NO_hjp8TIk3-57">
          <mxGeometry x="247.49999999999997" y="44.8" width="45" height="31.999999999999996" as="geometry" />
        </mxCell>
        <mxCell id="nvD61MG68NO_hjp8TIk3-67" value="Su" style="strokeWidth=1;shadow=0;dashed=0;align=center;html=1;shape=mxgraph.mockup.forms.anchor;fontColor=#999999;" vertex="1" parent="nvD61MG68NO_hjp8TIk3-57">
          <mxGeometry x="292.5" y="44.8" width="45" height="31.999999999999996" as="geometry" />
        </mxCell>
        <mxCell id="nvD61MG68NO_hjp8TIk3-68" value="1" style="strokeWidth=1;shadow=0;dashed=0;align=center;html=1;shape=mxgraph.mockup.forms.rrect;rSize=0;strokeColor=#999999;fontColor=#999999;" vertex="1" parent="nvD61MG68NO_hjp8TIk3-57">
          <mxGeometry x="22.5" y="76.79999999999998" width="45" height="31.999999999999996" as="geometry" />
        </mxCell>
        <mxCell id="nvD61MG68NO_hjp8TIk3-69" value="2" style="strokeWidth=1;shadow=0;dashed=0;align=center;html=1;shape=mxgraph.mockup.forms.rrect;rSize=0;strokeColor=#999999;fontColor=#999999;" vertex="1" parent="nvD61MG68NO_hjp8TIk3-57">
          <mxGeometry x="67.5" y="76.79999999999998" width="45" height="31.999999999999996" as="geometry" />
        </mxCell>
        <mxCell id="nvD61MG68NO_hjp8TIk3-70" value="3" style="strokeWidth=1;shadow=0;dashed=0;align=center;html=1;shape=mxgraph.mockup.forms.rrect;rSize=0;strokeColor=#999999;fontColor=#999999;" vertex="1" parent="nvD61MG68NO_hjp8TIk3-57">
          <mxGeometry x="112.49999999999999" y="76.79999999999998" width="45" height="31.999999999999996" as="geometry" />
        </mxCell>
        <mxCell id="nvD61MG68NO_hjp8TIk3-71" value="4" style="strokeWidth=1;shadow=0;dashed=0;align=center;html=1;shape=mxgraph.mockup.forms.rrect;rSize=0;strokeColor=#999999;fontColor=#999999;" vertex="1" parent="nvD61MG68NO_hjp8TIk3-57">
          <mxGeometry x="157.5" y="76.79999999999998" width="45" height="31.999999999999996" as="geometry" />
        </mxCell>
        <mxCell id="nvD61MG68NO_hjp8TIk3-72" value="5" style="strokeWidth=1;shadow=0;dashed=0;align=center;html=1;shape=mxgraph.mockup.forms.rrect;rSize=0;strokeColor=#999999;fontColor=#999999;" vertex="1" parent="nvD61MG68NO_hjp8TIk3-57">
          <mxGeometry x="202.49999999999997" y="76.79999999999998" width="45" height="31.999999999999996" as="geometry" />
        </mxCell>
        <mxCell id="nvD61MG68NO_hjp8TIk3-73" value="6" style="strokeWidth=1;shadow=0;dashed=0;align=center;html=1;shape=mxgraph.mockup.forms.rrect;rSize=0;strokeColor=#999999;fontColor=#999999;" vertex="1" parent="nvD61MG68NO_hjp8TIk3-57">
          <mxGeometry x="247.49999999999997" y="76.79999999999998" width="45" height="31.999999999999996" as="geometry" />
        </mxCell>
        <mxCell id="nvD61MG68NO_hjp8TIk3-74" value="7" style="strokeWidth=1;shadow=0;dashed=0;align=center;html=1;shape=mxgraph.mockup.forms.rrect;rSize=0;strokeColor=#999999;fontColor=#999999;" vertex="1" parent="nvD61MG68NO_hjp8TIk3-57">
          <mxGeometry x="292.5" y="76.79999999999998" width="45" height="31.999999999999996" as="geometry" />
        </mxCell>
        <mxCell id="nvD61MG68NO_hjp8TIk3-75" value="8" style="strokeWidth=1;shadow=0;dashed=0;align=center;html=1;shape=mxgraph.mockup.forms.rrect;rSize=0;strokeColor=#999999;fontColor=#999999;" vertex="1" parent="nvD61MG68NO_hjp8TIk3-57">
          <mxGeometry x="22.5" y="108.79999999999997" width="45" height="31.999999999999996" as="geometry" />
        </mxCell>
        <mxCell id="nvD61MG68NO_hjp8TIk3-76" value="9" style="strokeWidth=1;shadow=0;dashed=0;align=center;html=1;shape=mxgraph.mockup.forms.rrect;rSize=0;strokeColor=#999999;fontColor=#999999;" vertex="1" parent="nvD61MG68NO_hjp8TIk3-57">
          <mxGeometry x="67.5" y="108.79999999999997" width="45" height="31.999999999999996" as="geometry" />
        </mxCell>
        <mxCell id="nvD61MG68NO_hjp8TIk3-77" value="10" style="strokeWidth=1;shadow=0;dashed=0;align=center;html=1;shape=mxgraph.mockup.forms.rrect;rSize=0;strokeColor=#999999;fontColor=#999999;" vertex="1" parent="nvD61MG68NO_hjp8TIk3-57">
          <mxGeometry x="112.49999999999999" y="108.79999999999997" width="45" height="31.999999999999996" as="geometry" />
        </mxCell>
        <mxCell id="nvD61MG68NO_hjp8TIk3-78" value="11" style="strokeWidth=1;shadow=0;dashed=0;align=center;html=1;shape=mxgraph.mockup.forms.rrect;rSize=0;strokeColor=#999999;fontColor=#999999;" vertex="1" parent="nvD61MG68NO_hjp8TIk3-57">
          <mxGeometry x="157.5" y="108.79999999999997" width="45" height="31.999999999999996" as="geometry" />
        </mxCell>
        <mxCell id="nvD61MG68NO_hjp8TIk3-79" value="12" style="strokeWidth=1;shadow=0;dashed=0;align=center;html=1;shape=mxgraph.mockup.forms.rrect;rSize=0;strokeColor=#999999;fontColor=#999999;" vertex="1" parent="nvD61MG68NO_hjp8TIk3-57">
          <mxGeometry x="202.49999999999997" y="108.79999999999997" width="45" height="31.999999999999996" as="geometry" />
        </mxCell>
        <mxCell id="nvD61MG68NO_hjp8TIk3-80" value="13" style="strokeWidth=1;shadow=0;dashed=0;align=center;html=1;shape=mxgraph.mockup.forms.rrect;rSize=0;strokeColor=#999999;fontColor=#999999;" vertex="1" parent="nvD61MG68NO_hjp8TIk3-57">
          <mxGeometry x="247.49999999999997" y="108.79999999999997" width="45" height="31.999999999999996" as="geometry" />
        </mxCell>
        <mxCell id="nvD61MG68NO_hjp8TIk3-81" value="14" style="strokeWidth=1;shadow=0;dashed=0;align=center;html=1;shape=mxgraph.mockup.forms.rrect;rSize=0;strokeColor=#999999;fontColor=#999999;" vertex="1" parent="nvD61MG68NO_hjp8TIk3-57">
          <mxGeometry x="292.5" y="108.79999999999997" width="45" height="31.999999999999996" as="geometry" />
        </mxCell>
        <mxCell id="nvD61MG68NO_hjp8TIk3-82" value="15" style="strokeWidth=1;shadow=0;dashed=0;align=center;html=1;shape=mxgraph.mockup.forms.rrect;rSize=0;strokeColor=#999999;fontColor=#999999;" vertex="1" parent="nvD61MG68NO_hjp8TIk3-57">
          <mxGeometry x="22.5" y="140.8" width="45" height="31.999999999999996" as="geometry" />
        </mxCell>
        <mxCell id="nvD61MG68NO_hjp8TIk3-83" value="16" style="strokeWidth=1;shadow=0;dashed=0;align=center;html=1;shape=mxgraph.mockup.forms.rrect;rSize=0;strokeColor=#999999;fontColor=#999999;" vertex="1" parent="nvD61MG68NO_hjp8TIk3-57">
          <mxGeometry x="67.5" y="140.8" width="45" height="31.999999999999996" as="geometry" />
        </mxCell>
        <mxCell id="nvD61MG68NO_hjp8TIk3-84" value="17" style="strokeWidth=1;shadow=0;dashed=0;align=center;html=1;shape=mxgraph.mockup.forms.rrect;rSize=0;strokeColor=#999999;fontColor=#999999;" vertex="1" parent="nvD61MG68NO_hjp8TIk3-57">
          <mxGeometry x="112.49999999999999" y="140.8" width="45" height="31.999999999999996" as="geometry" />
        </mxCell>
        <mxCell id="nvD61MG68NO_hjp8TIk3-85" value="18" style="strokeWidth=1;shadow=0;dashed=0;align=center;html=1;shape=mxgraph.mockup.forms.rrect;rSize=0;strokeColor=#999999;fontColor=#999999;" vertex="1" parent="nvD61MG68NO_hjp8TIk3-57">
          <mxGeometry x="157.5" y="140.8" width="45" height="31.999999999999996" as="geometry" />
        </mxCell>
        <mxCell id="nvD61MG68NO_hjp8TIk3-86" value="19" style="strokeWidth=1;shadow=0;dashed=0;align=center;html=1;shape=mxgraph.mockup.forms.rrect;rSize=0;strokeColor=#999999;fontColor=#999999;" vertex="1" parent="nvD61MG68NO_hjp8TIk3-57">
          <mxGeometry x="202.49999999999997" y="140.8" width="45" height="31.999999999999996" as="geometry" />
        </mxCell>
        <mxCell id="nvD61MG68NO_hjp8TIk3-87" value="20" style="strokeWidth=1;shadow=0;dashed=0;align=center;html=1;shape=mxgraph.mockup.forms.rrect;rSize=0;strokeColor=#999999;fontColor=#999999;" vertex="1" parent="nvD61MG68NO_hjp8TIk3-57">
          <mxGeometry x="247.49999999999997" y="140.8" width="45" height="31.999999999999996" as="geometry" />
        </mxCell>
        <mxCell id="nvD61MG68NO_hjp8TIk3-88" value="21" style="strokeWidth=1;shadow=0;dashed=0;align=center;html=1;shape=mxgraph.mockup.forms.rrect;rSize=0;strokeColor=#999999;fontColor=#999999;" vertex="1" parent="nvD61MG68NO_hjp8TIk3-57">
          <mxGeometry x="292.5" y="140.8" width="45" height="31.999999999999996" as="geometry" />
        </mxCell>
        <mxCell id="nvD61MG68NO_hjp8TIk3-89" value="22" style="strokeWidth=1;shadow=0;dashed=0;align=center;html=1;shape=mxgraph.mockup.forms.rrect;rSize=0;strokeColor=#999999;fontColor=#999999;" vertex="1" parent="nvD61MG68NO_hjp8TIk3-57">
          <mxGeometry x="22.5" y="172.79999999999995" width="45" height="31.999999999999996" as="geometry" />
        </mxCell>
        <mxCell id="nvD61MG68NO_hjp8TIk3-90" value="23" style="strokeWidth=1;shadow=0;dashed=0;align=center;html=1;shape=mxgraph.mockup.forms.rrect;rSize=0;strokeColor=#999999;fontColor=#999999;" vertex="1" parent="nvD61MG68NO_hjp8TIk3-57">
          <mxGeometry x="67.5" y="172.79999999999995" width="45" height="31.999999999999996" as="geometry" />
        </mxCell>
        <mxCell id="nvD61MG68NO_hjp8TIk3-91" value="25" style="strokeWidth=1;shadow=0;dashed=0;align=center;html=1;shape=mxgraph.mockup.forms.rrect;rSize=0;strokeColor=#999999;fontColor=#999999;" vertex="1" parent="nvD61MG68NO_hjp8TIk3-57">
          <mxGeometry x="157.5" y="172.79999999999995" width="45" height="31.999999999999996" as="geometry" />
        </mxCell>
        <mxCell id="nvD61MG68NO_hjp8TIk3-92" value="26" style="strokeWidth=1;shadow=0;dashed=0;align=center;html=1;shape=mxgraph.mockup.forms.rrect;rSize=0;strokeColor=#999999;fontColor=#999999;" vertex="1" parent="nvD61MG68NO_hjp8TIk3-57">
          <mxGeometry x="202.49999999999997" y="172.79999999999995" width="45" height="31.999999999999996" as="geometry" />
        </mxCell>
        <mxCell id="nvD61MG68NO_hjp8TIk3-93" value="27" style="strokeWidth=1;shadow=0;dashed=0;align=center;html=1;shape=mxgraph.mockup.forms.rrect;rSize=0;strokeColor=#999999;fontColor=#999999;" vertex="1" parent="nvD61MG68NO_hjp8TIk3-57">
          <mxGeometry x="247.49999999999997" y="172.79999999999995" width="45" height="31.999999999999996" as="geometry" />
        </mxCell>
        <mxCell id="nvD61MG68NO_hjp8TIk3-94" value="28" style="strokeWidth=1;shadow=0;dashed=0;align=center;html=1;shape=mxgraph.mockup.forms.rrect;rSize=0;strokeColor=#999999;fontColor=#999999;" vertex="1" parent="nvD61MG68NO_hjp8TIk3-57">
          <mxGeometry x="292.5" y="172.79999999999995" width="45" height="31.999999999999996" as="geometry" />
        </mxCell>
        <mxCell id="nvD61MG68NO_hjp8TIk3-95" value="29" style="strokeWidth=1;shadow=0;dashed=0;align=center;html=1;shape=mxgraph.mockup.forms.rrect;rSize=0;strokeColor=#999999;fontColor=#999999;" vertex="1" parent="nvD61MG68NO_hjp8TIk3-57">
          <mxGeometry x="22.5" y="204.79999999999995" width="45" height="31.999999999999996" as="geometry" />
        </mxCell>
        <mxCell id="nvD61MG68NO_hjp8TIk3-96" value="30" style="strokeWidth=1;shadow=0;dashed=0;align=center;html=1;shape=mxgraph.mockup.forms.rrect;rSize=0;strokeColor=#999999;fontColor=#999999;" vertex="1" parent="nvD61MG68NO_hjp8TIk3-57">
          <mxGeometry x="67.5" y="204.79999999999995" width="45" height="31.999999999999996" as="geometry" />
        </mxCell>
        <mxCell id="nvD61MG68NO_hjp8TIk3-97" value="31" style="strokeWidth=1;shadow=0;dashed=0;align=center;html=1;shape=mxgraph.mockup.forms.rrect;rSize=0;strokeColor=#999999;fontColor=#999999;" vertex="1" parent="nvD61MG68NO_hjp8TIk3-57">
          <mxGeometry x="112.49999999999999" y="204.79999999999995" width="45" height="31.999999999999996" as="geometry" />
        </mxCell>
        <mxCell id="nvD61MG68NO_hjp8TIk3-98" value="1" style="strokeWidth=1;shadow=0;dashed=0;align=center;html=1;shape=mxgraph.mockup.forms.rrect;rSize=0;strokeColor=#999999;fontColor=#999999;fillColor=#ddeeff;" vertex="1" parent="nvD61MG68NO_hjp8TIk3-57">
          <mxGeometry x="157.5" y="204.79999999999995" width="45" height="31.999999999999996" as="geometry" />
        </mxCell>
        <mxCell id="nvD61MG68NO_hjp8TIk3-99" value="2" style="strokeWidth=1;shadow=0;dashed=0;align=center;html=1;shape=mxgraph.mockup.forms.rrect;rSize=0;strokeColor=#999999;fontColor=#999999;fillColor=#ddeeff;" vertex="1" parent="nvD61MG68NO_hjp8TIk3-57">
          <mxGeometry x="202.49999999999997" y="204.79999999999995" width="45" height="31.999999999999996" as="geometry" />
        </mxCell>
        <mxCell id="nvD61MG68NO_hjp8TIk3-100" value="3" style="strokeWidth=1;shadow=0;dashed=0;align=center;html=1;shape=mxgraph.mockup.forms.rrect;rSize=0;strokeColor=#999999;fontColor=#999999;fillColor=#ddeeff;" vertex="1" parent="nvD61MG68NO_hjp8TIk3-57">
          <mxGeometry x="247.49999999999997" y="204.79999999999995" width="45" height="31.999999999999996" as="geometry" />
        </mxCell>
        <mxCell id="nvD61MG68NO_hjp8TIk3-101" value="4" style="strokeWidth=1;shadow=0;dashed=0;align=center;html=1;shape=mxgraph.mockup.forms.rrect;rSize=0;strokeColor=#999999;fontColor=#999999;fillColor=#ddeeff;" vertex="1" parent="nvD61MG68NO_hjp8TIk3-57">
          <mxGeometry x="292.5" y="204.79999999999995" width="45" height="31.999999999999996" as="geometry" />
        </mxCell>
        <mxCell id="nvD61MG68NO_hjp8TIk3-102" value="5" style="strokeWidth=1;shadow=0;dashed=0;align=center;html=1;shape=mxgraph.mockup.forms.rrect;rSize=0;strokeColor=#999999;fontColor=#999999;fillColor=#ddeeff;" vertex="1" parent="nvD61MG68NO_hjp8TIk3-57">
          <mxGeometry x="22.5" y="236.79999999999998" width="45" height="31.999999999999996" as="geometry" />
        </mxCell>
        <mxCell id="nvD61MG68NO_hjp8TIk3-103" value="6" style="strokeWidth=1;shadow=0;dashed=0;align=center;html=1;shape=mxgraph.mockup.forms.rrect;rSize=0;strokeColor=#999999;fontColor=#999999;fillColor=#ddeeff;" vertex="1" parent="nvD61MG68NO_hjp8TIk3-57">
          <mxGeometry x="67.5" y="236.79999999999998" width="45" height="31.999999999999996" as="geometry" />
        </mxCell>
        <mxCell id="nvD61MG68NO_hjp8TIk3-104" value="7" style="strokeWidth=1;shadow=0;dashed=0;align=center;html=1;shape=mxgraph.mockup.forms.rrect;rSize=0;strokeColor=#999999;fontColor=#999999;fillColor=#ddeeff;" vertex="1" parent="nvD61MG68NO_hjp8TIk3-57">
          <mxGeometry x="112.49999999999999" y="236.79999999999998" width="45" height="31.999999999999996" as="geometry" />
        </mxCell>
        <mxCell id="nvD61MG68NO_hjp8TIk3-105" value="8" style="strokeWidth=1;shadow=0;dashed=0;align=center;html=1;shape=mxgraph.mockup.forms.rrect;rSize=0;strokeColor=#999999;fontColor=#999999;fillColor=#ddeeff;" vertex="1" parent="nvD61MG68NO_hjp8TIk3-57">
          <mxGeometry x="157.5" y="236.79999999999998" width="45" height="31.999999999999996" as="geometry" />
        </mxCell>
        <mxCell id="nvD61MG68NO_hjp8TIk3-106" value="9" style="strokeWidth=1;shadow=0;dashed=0;align=center;html=1;shape=mxgraph.mockup.forms.rrect;rSize=0;strokeColor=#999999;fontColor=#999999;fillColor=#ddeeff;" vertex="1" parent="nvD61MG68NO_hjp8TIk3-57">
          <mxGeometry x="202.49999999999997" y="236.79999999999998" width="45" height="31.999999999999996" as="geometry" />
        </mxCell>
        <mxCell id="nvD61MG68NO_hjp8TIk3-107" value="10" style="strokeWidth=1;shadow=0;dashed=0;align=center;html=1;shape=mxgraph.mockup.forms.rrect;rSize=0;strokeColor=#999999;fontColor=#999999;fillColor=#ddeeff;" vertex="1" parent="nvD61MG68NO_hjp8TIk3-57">
          <mxGeometry x="247.49999999999997" y="236.79999999999998" width="45" height="31.999999999999996" as="geometry" />
        </mxCell>
        <mxCell id="nvD61MG68NO_hjp8TIk3-108" value="11" style="strokeWidth=1;shadow=0;dashed=0;align=center;html=1;shape=mxgraph.mockup.forms.rrect;rSize=0;strokeColor=#999999;fontColor=#999999;fillColor=#ddeeff;" vertex="1" parent="nvD61MG68NO_hjp8TIk3-57">
          <mxGeometry x="292.5" y="236.79999999999998" width="45" height="31.999999999999996" as="geometry" />
        </mxCell>
        <mxCell id="nvD61MG68NO_hjp8TIk3-109" value="24" style="strokeWidth=1;shadow=0;dashed=0;align=center;html=1;shape=mxgraph.mockup.forms.rrect;rSize=0;strokeColor=#ff0000;fontColor=#000000;strokeWidth=2;fillColor=#FDF7FF;" vertex="1" parent="nvD61MG68NO_hjp8TIk3-57">
          <mxGeometry x="112.49999999999999" y="172.79999999999995" width="45" height="31.999999999999996" as="geometry" />
        </mxCell>
        <mxCell id="nvD61MG68NO_hjp8TIk3-233" value="" style="strokeWidth=1;shadow=0;dashed=0;align=center;html=1;shape=mxgraph.mockup.forms.rrect;rSize=0;strokeColor=#ff0000;fontColor=#000000;strokeWidth=2;fillColor=none;gradientColor=none;" vertex="1" parent="nvD61MG68NO_hjp8TIk3-57">
          <mxGeometry x="67.5" y="172.79999999999995" width="45" height="31.999999999999996" as="geometry" />
        </mxCell>
        <mxCell id="nvD61MG68NO_hjp8TIk3-1" value="" style="strokeWidth=1;shadow=0;dashed=0;align=center;html=1;shape=mxgraph.mockup.forms.rrect;rSize=5;strokeColor=#999999;fillColor=#ffffff;" vertex="1" parent="1">
          <mxGeometry x="440" y="200" width="360" height="280" as="geometry" />
        </mxCell>
        <mxCell id="nvD61MG68NO_hjp8TIk3-2" value="This Month" style="strokeWidth=1;shadow=0;dashed=0;align=center;html=1;shape=mxgraph.mockup.forms.anchor;fontColor=#999999;" vertex="1" parent="nvD61MG68NO_hjp8TIk3-1">
          <mxGeometry x="67.5" y="12.799999999999997" width="224.99999999999997" height="31.999999999999993" as="geometry" />
        </mxCell>
        <mxCell id="nvD61MG68NO_hjp8TIk3-3" value="&lt;" style="strokeWidth=1;shadow=0;dashed=0;align=center;html=1;shape=mxgraph.mockup.forms.rrect;rSize=4;strokeColor=#999999;fontColor=#008cff;fontSize=19;fontStyle=1;" vertex="1" parent="nvD61MG68NO_hjp8TIk3-1">
          <mxGeometry x="18" y="12.799999999999997" width="56.24999999999999" height="31.999999999999993" as="geometry" />
        </mxCell>
        <mxCell id="nvD61MG68NO_hjp8TIk3-4" value="&gt;" style="strokeWidth=1;shadow=0;dashed=0;align=center;html=1;shape=mxgraph.mockup.forms.rrect;rSize=4;strokeColor=#999999;fontColor=#008cff;fontSize=19;fontStyle=1;" vertex="1" parent="nvD61MG68NO_hjp8TIk3-1">
          <mxGeometry x="285.75" y="12.799999999999997" width="56.24999999999999" height="31.999999999999993" as="geometry" />
        </mxCell>
        <mxCell id="nvD61MG68NO_hjp8TIk3-5" value="Mo" style="strokeWidth=1;shadow=0;dashed=0;align=center;html=1;shape=mxgraph.mockup.forms.anchor;fontColor=#999999;" vertex="1" parent="nvD61MG68NO_hjp8TIk3-1">
          <mxGeometry x="22.5" y="44.8" width="45" height="31.999999999999993" as="geometry" />
        </mxCell>
        <mxCell id="nvD61MG68NO_hjp8TIk3-6" value="Tu" style="strokeWidth=1;shadow=0;dashed=0;align=center;html=1;shape=mxgraph.mockup.forms.anchor;fontColor=#999999;" vertex="1" parent="nvD61MG68NO_hjp8TIk3-1">
          <mxGeometry x="67.5" y="44.8" width="45" height="31.999999999999993" as="geometry" />
        </mxCell>
        <mxCell id="nvD61MG68NO_hjp8TIk3-7" value="We" style="strokeWidth=1;shadow=0;dashed=0;align=center;html=1;shape=mxgraph.mockup.forms.anchor;fontColor=#999999;" vertex="1" parent="nvD61MG68NO_hjp8TIk3-1">
          <mxGeometry x="112.49999999999999" y="44.8" width="45" height="31.999999999999993" as="geometry" />
        </mxCell>
        <mxCell id="nvD61MG68NO_hjp8TIk3-8" value="Th" style="strokeWidth=1;shadow=0;dashed=0;align=center;html=1;shape=mxgraph.mockup.forms.anchor;fontColor=#999999;" vertex="1" parent="nvD61MG68NO_hjp8TIk3-1">
          <mxGeometry x="157.5" y="44.8" width="45" height="31.999999999999993" as="geometry" />
        </mxCell>
        <mxCell id="nvD61MG68NO_hjp8TIk3-9" value="Fr" style="strokeWidth=1;shadow=0;dashed=0;align=center;html=1;shape=mxgraph.mockup.forms.anchor;fontColor=#999999;" vertex="1" parent="nvD61MG68NO_hjp8TIk3-1">
          <mxGeometry x="202.49999999999997" y="44.8" width="45" height="31.999999999999993" as="geometry" />
        </mxCell>
        <mxCell id="nvD61MG68NO_hjp8TIk3-10" value="Sa" style="strokeWidth=1;shadow=0;dashed=0;align=center;html=1;shape=mxgraph.mockup.forms.anchor;fontColor=#999999;" vertex="1" parent="nvD61MG68NO_hjp8TIk3-1">
          <mxGeometry x="247.49999999999997" y="44.8" width="45" height="31.999999999999993" as="geometry" />
        </mxCell>
        <mxCell id="nvD61MG68NO_hjp8TIk3-11" value="Su" style="strokeWidth=1;shadow=0;dashed=0;align=center;html=1;shape=mxgraph.mockup.forms.anchor;fontColor=#999999;" vertex="1" parent="nvD61MG68NO_hjp8TIk3-1">
          <mxGeometry x="292.5" y="44.8" width="45" height="31.999999999999993" as="geometry" />
        </mxCell>
        <mxCell id="nvD61MG68NO_hjp8TIk3-12" value="1" style="strokeWidth=1;shadow=0;dashed=0;align=center;html=1;shape=mxgraph.mockup.forms.rrect;rSize=0;strokeColor=#999999;fontColor=#999999;" vertex="1" parent="nvD61MG68NO_hjp8TIk3-1">
          <mxGeometry x="22.5" y="76.79999999999998" width="45" height="31.999999999999993" as="geometry" />
        </mxCell>
        <mxCell id="nvD61MG68NO_hjp8TIk3-13" value="2" style="strokeWidth=1;shadow=0;dashed=0;align=center;html=1;shape=mxgraph.mockup.forms.rrect;rSize=0;strokeColor=#999999;fontColor=#999999;" vertex="1" parent="nvD61MG68NO_hjp8TIk3-1">
          <mxGeometry x="67.5" y="76.79999999999998" width="45" height="31.999999999999993" as="geometry" />
        </mxCell>
        <mxCell id="nvD61MG68NO_hjp8TIk3-14" value="3" style="strokeWidth=1;shadow=0;dashed=0;align=center;html=1;shape=mxgraph.mockup.forms.rrect;rSize=0;strokeColor=#999999;fontColor=#999999;" vertex="1" parent="nvD61MG68NO_hjp8TIk3-1">
          <mxGeometry x="112.49999999999999" y="76.79999999999998" width="45" height="31.999999999999993" as="geometry" />
        </mxCell>
        <mxCell id="nvD61MG68NO_hjp8TIk3-15" value="4" style="strokeWidth=1;shadow=0;dashed=0;align=center;html=1;shape=mxgraph.mockup.forms.rrect;rSize=0;strokeColor=#999999;fontColor=#999999;" vertex="1" parent="nvD61MG68NO_hjp8TIk3-1">
          <mxGeometry x="157.5" y="76.79999999999998" width="45" height="31.999999999999993" as="geometry" />
        </mxCell>
        <mxCell id="nvD61MG68NO_hjp8TIk3-16" value="5" style="strokeWidth=1;shadow=0;dashed=0;align=center;html=1;shape=mxgraph.mockup.forms.rrect;rSize=0;strokeColor=#999999;fontColor=#999999;" vertex="1" parent="nvD61MG68NO_hjp8TIk3-1">
          <mxGeometry x="202.49999999999997" y="76.79999999999998" width="45" height="31.999999999999993" as="geometry" />
        </mxCell>
        <mxCell id="nvD61MG68NO_hjp8TIk3-17" value="6" style="strokeWidth=1;shadow=0;dashed=0;align=center;html=1;shape=mxgraph.mockup.forms.rrect;rSize=0;strokeColor=#999999;fontColor=#999999;" vertex="1" parent="nvD61MG68NO_hjp8TIk3-1">
          <mxGeometry x="247.49999999999997" y="76.79999999999998" width="45" height="31.999999999999993" as="geometry" />
        </mxCell>
        <mxCell id="nvD61MG68NO_hjp8TIk3-18" value="7" style="strokeWidth=1;shadow=0;dashed=0;align=center;html=1;shape=mxgraph.mockup.forms.rrect;rSize=0;strokeColor=#999999;fontColor=#999999;" vertex="1" parent="nvD61MG68NO_hjp8TIk3-1">
          <mxGeometry x="292.5" y="76.79999999999998" width="45" height="31.999999999999993" as="geometry" />
        </mxCell>
        <mxCell id="nvD61MG68NO_hjp8TIk3-19" value="8" style="strokeWidth=1;shadow=0;dashed=0;align=center;html=1;shape=mxgraph.mockup.forms.rrect;rSize=0;strokeColor=#999999;fontColor=#999999;" vertex="1" parent="nvD61MG68NO_hjp8TIk3-1">
          <mxGeometry x="22.5" y="108.79999999999998" width="45" height="31.999999999999993" as="geometry" />
        </mxCell>
        <mxCell id="nvD61MG68NO_hjp8TIk3-20" value="9" style="strokeWidth=1;shadow=0;dashed=0;align=center;html=1;shape=mxgraph.mockup.forms.rrect;rSize=0;strokeColor=#999999;fontColor=#999999;" vertex="1" parent="nvD61MG68NO_hjp8TIk3-1">
          <mxGeometry x="67.5" y="108.79999999999998" width="45" height="31.999999999999993" as="geometry" />
        </mxCell>
        <mxCell id="nvD61MG68NO_hjp8TIk3-21" value="10" style="strokeWidth=1;shadow=0;dashed=0;align=center;html=1;shape=mxgraph.mockup.forms.rrect;rSize=0;strokeColor=#999999;fontColor=#999999;" vertex="1" parent="nvD61MG68NO_hjp8TIk3-1">
          <mxGeometry x="112.49999999999999" y="108.79999999999998" width="45" height="31.999999999999993" as="geometry" />
        </mxCell>
        <mxCell id="nvD61MG68NO_hjp8TIk3-22" value="11" style="strokeWidth=1;shadow=0;dashed=0;align=center;html=1;shape=mxgraph.mockup.forms.rrect;rSize=0;strokeColor=#999999;fontColor=#999999;" vertex="1" parent="nvD61MG68NO_hjp8TIk3-1">
          <mxGeometry x="157.5" y="108.79999999999998" width="45" height="31.999999999999993" as="geometry" />
        </mxCell>
        <mxCell id="nvD61MG68NO_hjp8TIk3-23" value="12" style="strokeWidth=1;shadow=0;dashed=0;align=center;html=1;shape=mxgraph.mockup.forms.rrect;rSize=0;strokeColor=#999999;fontColor=#999999;" vertex="1" parent="nvD61MG68NO_hjp8TIk3-1">
          <mxGeometry x="202.49999999999997" y="108.79999999999998" width="45" height="31.999999999999993" as="geometry" />
        </mxCell>
        <mxCell id="nvD61MG68NO_hjp8TIk3-24" value="13" style="strokeWidth=1;shadow=0;dashed=0;align=center;html=1;shape=mxgraph.mockup.forms.rrect;rSize=0;strokeColor=#999999;fontColor=#999999;" vertex="1" parent="nvD61MG68NO_hjp8TIk3-1">
          <mxGeometry x="247.49999999999997" y="108.79999999999998" width="45" height="31.999999999999993" as="geometry" />
        </mxCell>
        <mxCell id="nvD61MG68NO_hjp8TIk3-25" value="14" style="strokeWidth=1;shadow=0;dashed=0;align=center;html=1;shape=mxgraph.mockup.forms.rrect;rSize=0;strokeColor=#999999;fontColor=#999999;" vertex="1" parent="nvD61MG68NO_hjp8TIk3-1">
          <mxGeometry x="292.5" y="108.79999999999998" width="45" height="31.999999999999993" as="geometry" />
        </mxCell>
        <mxCell id="nvD61MG68NO_hjp8TIk3-26" value="15" style="strokeWidth=1;shadow=0;dashed=0;align=center;html=1;shape=mxgraph.mockup.forms.rrect;rSize=0;strokeColor=#999999;fontColor=#999999;" vertex="1" parent="nvD61MG68NO_hjp8TIk3-1">
          <mxGeometry x="22.5" y="140.8" width="45" height="31.999999999999993" as="geometry" />
        </mxCell>
        <mxCell id="nvD61MG68NO_hjp8TIk3-27" value="16" style="strokeWidth=1;shadow=0;dashed=0;align=center;html=1;shape=mxgraph.mockup.forms.rrect;rSize=0;strokeColor=#999999;fontColor=#999999;" vertex="1" parent="nvD61MG68NO_hjp8TIk3-1">
          <mxGeometry x="67.5" y="140.8" width="45" height="31.999999999999993" as="geometry" />
        </mxCell>
        <mxCell id="nvD61MG68NO_hjp8TIk3-28" value="17" style="strokeWidth=1;shadow=0;dashed=0;align=center;html=1;shape=mxgraph.mockup.forms.rrect;rSize=0;strokeColor=#999999;fontColor=#999999;" vertex="1" parent="nvD61MG68NO_hjp8TIk3-1">
          <mxGeometry x="112.49999999999999" y="140.8" width="45" height="31.999999999999993" as="geometry" />
        </mxCell>
        <mxCell id="nvD61MG68NO_hjp8TIk3-29" value="18" style="strokeWidth=1;shadow=0;dashed=0;align=center;html=1;shape=mxgraph.mockup.forms.rrect;rSize=0;strokeColor=#999999;fontColor=#999999;" vertex="1" parent="nvD61MG68NO_hjp8TIk3-1">
          <mxGeometry x="157.5" y="140.8" width="45" height="31.999999999999993" as="geometry" />
        </mxCell>
        <mxCell id="nvD61MG68NO_hjp8TIk3-30" value="19" style="strokeWidth=1;shadow=0;dashed=0;align=center;html=1;shape=mxgraph.mockup.forms.rrect;rSize=0;strokeColor=#999999;fontColor=#999999;" vertex="1" parent="nvD61MG68NO_hjp8TIk3-1">
          <mxGeometry x="202.49999999999997" y="140.8" width="45" height="31.999999999999993" as="geometry" />
        </mxCell>
        <mxCell id="nvD61MG68NO_hjp8TIk3-31" value="20" style="strokeWidth=1;shadow=0;dashed=0;align=center;html=1;shape=mxgraph.mockup.forms.rrect;rSize=0;strokeColor=#999999;fontColor=#999999;" vertex="1" parent="nvD61MG68NO_hjp8TIk3-1">
          <mxGeometry x="247.49999999999997" y="140.8" width="45" height="31.999999999999993" as="geometry" />
        </mxCell>
        <mxCell id="nvD61MG68NO_hjp8TIk3-32" value="21" style="strokeWidth=1;shadow=0;dashed=0;align=center;html=1;shape=mxgraph.mockup.forms.rrect;rSize=0;strokeColor=#999999;fontColor=#999999;" vertex="1" parent="nvD61MG68NO_hjp8TIk3-1">
          <mxGeometry x="292.5" y="140.8" width="45" height="31.999999999999993" as="geometry" />
        </mxCell>
        <mxCell id="nvD61MG68NO_hjp8TIk3-33" value="22" style="strokeWidth=1;shadow=0;dashed=0;align=center;html=1;shape=mxgraph.mockup.forms.rrect;rSize=0;strokeColor=#999999;fontColor=#999999;" vertex="1" parent="nvD61MG68NO_hjp8TIk3-1">
          <mxGeometry x="22.5" y="172.79999999999998" width="45" height="31.999999999999993" as="geometry" />
        </mxCell>
        <mxCell id="nvD61MG68NO_hjp8TIk3-34" value="23" style="strokeWidth=1;shadow=0;dashed=0;align=center;html=1;shape=mxgraph.mockup.forms.rrect;rSize=0;strokeColor=#999999;fontColor=#999999;" vertex="1" parent="nvD61MG68NO_hjp8TIk3-1">
          <mxGeometry x="67.5" y="172.79999999999998" width="45" height="31.999999999999993" as="geometry" />
        </mxCell>
        <mxCell id="nvD61MG68NO_hjp8TIk3-35" value="25" style="strokeWidth=1;shadow=0;dashed=0;align=center;html=1;shape=mxgraph.mockup.forms.rrect;rSize=0;strokeColor=#999999;fontColor=#999999;" vertex="1" parent="nvD61MG68NO_hjp8TIk3-1">
          <mxGeometry x="157.5" y="172.79999999999998" width="45" height="31.999999999999993" as="geometry" />
        </mxCell>
        <mxCell id="nvD61MG68NO_hjp8TIk3-36" value="26" style="strokeWidth=1;shadow=0;dashed=0;align=center;html=1;shape=mxgraph.mockup.forms.rrect;rSize=0;strokeColor=#999999;fontColor=#999999;" vertex="1" parent="nvD61MG68NO_hjp8TIk3-1">
          <mxGeometry x="202.49999999999997" y="172.79999999999998" width="45" height="31.999999999999993" as="geometry" />
        </mxCell>
        <mxCell id="nvD61MG68NO_hjp8TIk3-37" value="27" style="strokeWidth=1;shadow=0;dashed=0;align=center;html=1;shape=mxgraph.mockup.forms.rrect;rSize=0;strokeColor=#999999;fontColor=#999999;" vertex="1" parent="nvD61MG68NO_hjp8TIk3-1">
          <mxGeometry x="247.49999999999997" y="172.79999999999998" width="45" height="31.999999999999993" as="geometry" />
        </mxCell>
        <mxCell id="nvD61MG68NO_hjp8TIk3-38" value="28" style="strokeWidth=1;shadow=0;dashed=0;align=center;html=1;shape=mxgraph.mockup.forms.rrect;rSize=0;strokeColor=#999999;fontColor=#999999;" vertex="1" parent="nvD61MG68NO_hjp8TIk3-1">
          <mxGeometry x="292.5" y="172.79999999999998" width="45" height="31.999999999999993" as="geometry" />
        </mxCell>
        <mxCell id="nvD61MG68NO_hjp8TIk3-39" value="29" style="strokeWidth=1;shadow=0;dashed=0;align=center;html=1;shape=mxgraph.mockup.forms.rrect;rSize=0;strokeColor=#999999;fontColor=#999999;" vertex="1" parent="nvD61MG68NO_hjp8TIk3-1">
          <mxGeometry x="22.5" y="204.79999999999995" width="45" height="31.999999999999993" as="geometry" />
        </mxCell>
        <mxCell id="nvD61MG68NO_hjp8TIk3-40" value="30" style="strokeWidth=1;shadow=0;dashed=0;align=center;html=1;shape=mxgraph.mockup.forms.rrect;rSize=0;strokeColor=#999999;fontColor=#999999;" vertex="1" parent="nvD61MG68NO_hjp8TIk3-1">
          <mxGeometry x="67.5" y="204.79999999999995" width="45" height="31.999999999999993" as="geometry" />
        </mxCell>
        <mxCell id="nvD61MG68NO_hjp8TIk3-41" value="31" style="strokeWidth=1;shadow=0;dashed=0;align=center;html=1;shape=mxgraph.mockup.forms.rrect;rSize=0;strokeColor=#999999;fontColor=#999999;" vertex="1" parent="nvD61MG68NO_hjp8TIk3-1">
          <mxGeometry x="112.49999999999999" y="204.79999999999995" width="45" height="31.999999999999993" as="geometry" />
        </mxCell>
        <mxCell id="nvD61MG68NO_hjp8TIk3-42" value="1" style="strokeWidth=1;shadow=0;dashed=0;align=center;html=1;shape=mxgraph.mockup.forms.rrect;rSize=0;strokeColor=#999999;fontColor=#999999;fillColor=#ddeeff;" vertex="1" parent="nvD61MG68NO_hjp8TIk3-1">
          <mxGeometry x="157.5" y="204.79999999999995" width="45" height="31.999999999999993" as="geometry" />
        </mxCell>
        <mxCell id="nvD61MG68NO_hjp8TIk3-43" value="2" style="strokeWidth=1;shadow=0;dashed=0;align=center;html=1;shape=mxgraph.mockup.forms.rrect;rSize=0;strokeColor=#999999;fontColor=#999999;fillColor=#ddeeff;" vertex="1" parent="nvD61MG68NO_hjp8TIk3-1">
          <mxGeometry x="202.49999999999997" y="204.79999999999995" width="45" height="31.999999999999993" as="geometry" />
        </mxCell>
        <mxCell id="nvD61MG68NO_hjp8TIk3-44" value="3" style="strokeWidth=1;shadow=0;dashed=0;align=center;html=1;shape=mxgraph.mockup.forms.rrect;rSize=0;strokeColor=#999999;fontColor=#999999;fillColor=#ddeeff;" vertex="1" parent="nvD61MG68NO_hjp8TIk3-1">
          <mxGeometry x="247.49999999999997" y="204.79999999999995" width="45" height="31.999999999999993" as="geometry" />
        </mxCell>
        <mxCell id="nvD61MG68NO_hjp8TIk3-45" value="4" style="strokeWidth=1;shadow=0;dashed=0;align=center;html=1;shape=mxgraph.mockup.forms.rrect;rSize=0;strokeColor=#999999;fontColor=#999999;fillColor=#ddeeff;" vertex="1" parent="nvD61MG68NO_hjp8TIk3-1">
          <mxGeometry x="292.5" y="204.79999999999995" width="45" height="31.999999999999993" as="geometry" />
        </mxCell>
        <mxCell id="nvD61MG68NO_hjp8TIk3-46" value="5" style="strokeWidth=1;shadow=0;dashed=0;align=center;html=1;shape=mxgraph.mockup.forms.rrect;rSize=0;strokeColor=#999999;fontColor=#999999;fillColor=#ddeeff;" vertex="1" parent="nvD61MG68NO_hjp8TIk3-1">
          <mxGeometry x="22.5" y="236.8" width="45" height="31.999999999999993" as="geometry" />
        </mxCell>
        <mxCell id="nvD61MG68NO_hjp8TIk3-47" value="6" style="strokeWidth=1;shadow=0;dashed=0;align=center;html=1;shape=mxgraph.mockup.forms.rrect;rSize=0;strokeColor=#999999;fontColor=#999999;fillColor=#ddeeff;" vertex="1" parent="nvD61MG68NO_hjp8TIk3-1">
          <mxGeometry x="67.5" y="236.8" width="45" height="31.999999999999993" as="geometry" />
        </mxCell>
        <mxCell id="nvD61MG68NO_hjp8TIk3-48" value="7" style="strokeWidth=1;shadow=0;dashed=0;align=center;html=1;shape=mxgraph.mockup.forms.rrect;rSize=0;strokeColor=#999999;fontColor=#999999;fillColor=#ddeeff;" vertex="1" parent="nvD61MG68NO_hjp8TIk3-1">
          <mxGeometry x="112.49999999999999" y="236.8" width="45" height="31.999999999999993" as="geometry" />
        </mxCell>
        <mxCell id="nvD61MG68NO_hjp8TIk3-49" value="8" style="strokeWidth=1;shadow=0;dashed=0;align=center;html=1;shape=mxgraph.mockup.forms.rrect;rSize=0;strokeColor=#999999;fontColor=#999999;fillColor=#ddeeff;" vertex="1" parent="nvD61MG68NO_hjp8TIk3-1">
          <mxGeometry x="157.5" y="236.8" width="45" height="31.999999999999993" as="geometry" />
        </mxCell>
        <mxCell id="nvD61MG68NO_hjp8TIk3-50" value="9" style="strokeWidth=1;shadow=0;dashed=0;align=center;html=1;shape=mxgraph.mockup.forms.rrect;rSize=0;strokeColor=#999999;fontColor=#999999;fillColor=#ddeeff;" vertex="1" parent="nvD61MG68NO_hjp8TIk3-1">
          <mxGeometry x="202.49999999999997" y="236.8" width="45" height="31.999999999999993" as="geometry" />
        </mxCell>
        <mxCell id="nvD61MG68NO_hjp8TIk3-51" value="10" style="strokeWidth=1;shadow=0;dashed=0;align=center;html=1;shape=mxgraph.mockup.forms.rrect;rSize=0;strokeColor=#999999;fontColor=#999999;fillColor=#ddeeff;" vertex="1" parent="nvD61MG68NO_hjp8TIk3-1">
          <mxGeometry x="247.49999999999997" y="236.8" width="45" height="31.999999999999993" as="geometry" />
        </mxCell>
        <mxCell id="nvD61MG68NO_hjp8TIk3-52" value="11" style="strokeWidth=1;shadow=0;dashed=0;align=center;html=1;shape=mxgraph.mockup.forms.rrect;rSize=0;strokeColor=#999999;fontColor=#999999;fillColor=#ddeeff;" vertex="1" parent="nvD61MG68NO_hjp8TIk3-1">
          <mxGeometry x="292.5" y="236.8" width="45" height="31.999999999999993" as="geometry" />
        </mxCell>
        <mxCell id="nvD61MG68NO_hjp8TIk3-53" value="24" style="strokeWidth=1;shadow=0;dashed=0;align=center;html=1;shape=mxgraph.mockup.forms.rrect;rSize=0;strokeColor=#ff0000;fontColor=#ffffff;strokeWidth=2;fillColor=#008cff;" vertex="1" parent="nvD61MG68NO_hjp8TIk3-1">
          <mxGeometry x="112.49999999999999" y="172.79999999999998" width="45" height="31.999999999999993" as="geometry" />
        </mxCell>
        <mxCell id="nvD61MG68NO_hjp8TIk3-110" value="" style="strokeWidth=1;shadow=0;dashed=0;align=center;html=1;shape=mxgraph.mockup.forms.rrect;rSize=5;strokeColor=#999999;fillColor=#ffffff;" vertex="1" parent="1">
          <mxGeometry x="840" y="200" width="360" height="280" as="geometry" />
        </mxCell>
        <mxCell id="nvD61MG68NO_hjp8TIk3-111" value="November" style="strokeWidth=1;shadow=0;dashed=0;align=center;html=1;shape=mxgraph.mockup.forms.anchor;fontColor=#999999;" vertex="1" parent="nvD61MG68NO_hjp8TIk3-110">
          <mxGeometry x="67.5" y="12.799999999999997" width="224.99999999999997" height="31.999999999999993" as="geometry" />
        </mxCell>
        <mxCell id="nvD61MG68NO_hjp8TIk3-112" value="&lt;" style="strokeWidth=1;shadow=0;dashed=0;align=center;html=1;shape=mxgraph.mockup.forms.rrect;rSize=4;strokeColor=#999999;fontColor=#008cff;fontSize=19;fontStyle=1;" vertex="1" parent="nvD61MG68NO_hjp8TIk3-110">
          <mxGeometry x="18" y="12.799999999999997" width="56.24999999999999" height="31.999999999999993" as="geometry" />
        </mxCell>
        <mxCell id="nvD61MG68NO_hjp8TIk3-113" value="&gt;" style="strokeWidth=1;shadow=0;dashed=0;align=center;html=1;shape=mxgraph.mockup.forms.rrect;rSize=4;strokeColor=#999999;fontColor=#008cff;fontSize=19;fontStyle=1;" vertex="1" parent="nvD61MG68NO_hjp8TIk3-110">
          <mxGeometry x="285.75" y="12.799999999999997" width="56.24999999999999" height="31.999999999999993" as="geometry" />
        </mxCell>
        <mxCell id="nvD61MG68NO_hjp8TIk3-114" value="Mo" style="strokeWidth=1;shadow=0;dashed=0;align=center;html=1;shape=mxgraph.mockup.forms.anchor;fontColor=#999999;" vertex="1" parent="nvD61MG68NO_hjp8TIk3-110">
          <mxGeometry x="22.5" y="44.8" width="45" height="31.999999999999993" as="geometry" />
        </mxCell>
        <mxCell id="nvD61MG68NO_hjp8TIk3-115" value="Tu" style="strokeWidth=1;shadow=0;dashed=0;align=center;html=1;shape=mxgraph.mockup.forms.anchor;fontColor=#999999;" vertex="1" parent="nvD61MG68NO_hjp8TIk3-110">
          <mxGeometry x="67.5" y="44.8" width="45" height="31.999999999999993" as="geometry" />
        </mxCell>
        <mxCell id="nvD61MG68NO_hjp8TIk3-116" value="We" style="strokeWidth=1;shadow=0;dashed=0;align=center;html=1;shape=mxgraph.mockup.forms.anchor;fontColor=#999999;" vertex="1" parent="nvD61MG68NO_hjp8TIk3-110">
          <mxGeometry x="112.49999999999999" y="44.8" width="45" height="31.999999999999993" as="geometry" />
        </mxCell>
        <mxCell id="nvD61MG68NO_hjp8TIk3-117" value="Th" style="strokeWidth=1;shadow=0;dashed=0;align=center;html=1;shape=mxgraph.mockup.forms.anchor;fontColor=#999999;" vertex="1" parent="nvD61MG68NO_hjp8TIk3-110">
          <mxGeometry x="157.5" y="44.8" width="45" height="31.999999999999993" as="geometry" />
        </mxCell>
        <mxCell id="nvD61MG68NO_hjp8TIk3-118" value="Fr" style="strokeWidth=1;shadow=0;dashed=0;align=center;html=1;shape=mxgraph.mockup.forms.anchor;fontColor=#999999;" vertex="1" parent="nvD61MG68NO_hjp8TIk3-110">
          <mxGeometry x="202.49999999999997" y="44.8" width="45" height="31.999999999999993" as="geometry" />
        </mxCell>
        <mxCell id="nvD61MG68NO_hjp8TIk3-119" value="Sa" style="strokeWidth=1;shadow=0;dashed=0;align=center;html=1;shape=mxgraph.mockup.forms.anchor;fontColor=#999999;" vertex="1" parent="nvD61MG68NO_hjp8TIk3-110">
          <mxGeometry x="247.49999999999997" y="44.8" width="45" height="31.999999999999993" as="geometry" />
        </mxCell>
        <mxCell id="nvD61MG68NO_hjp8TIk3-120" value="Su" style="strokeWidth=1;shadow=0;dashed=0;align=center;html=1;shape=mxgraph.mockup.forms.anchor;fontColor=#999999;" vertex="1" parent="nvD61MG68NO_hjp8TIk3-110">
          <mxGeometry x="292.5" y="44.8" width="45" height="31.999999999999993" as="geometry" />
        </mxCell>
        <mxCell id="nvD61MG68NO_hjp8TIk3-121" value="1" style="strokeWidth=1;shadow=0;dashed=0;align=center;html=1;shape=mxgraph.mockup.forms.rrect;rSize=0;strokeColor=#999999;fontColor=#999999;" vertex="1" parent="nvD61MG68NO_hjp8TIk3-110">
          <mxGeometry x="22.5" y="76.79999999999998" width="45" height="31.999999999999993" as="geometry" />
        </mxCell>
        <mxCell id="nvD61MG68NO_hjp8TIk3-122" value="2" style="strokeWidth=1;shadow=0;dashed=0;align=center;html=1;shape=mxgraph.mockup.forms.rrect;rSize=0;strokeColor=#999999;fontColor=#999999;" vertex="1" parent="nvD61MG68NO_hjp8TIk3-110">
          <mxGeometry x="67.5" y="76.79999999999998" width="45" height="31.999999999999993" as="geometry" />
        </mxCell>
        <mxCell id="nvD61MG68NO_hjp8TIk3-123" value="3" style="strokeWidth=1;shadow=0;dashed=0;align=center;html=1;shape=mxgraph.mockup.forms.rrect;rSize=0;strokeColor=#999999;fontColor=#999999;" vertex="1" parent="nvD61MG68NO_hjp8TIk3-110">
          <mxGeometry x="112.49999999999999" y="76.79999999999998" width="45" height="31.999999999999993" as="geometry" />
        </mxCell>
        <mxCell id="nvD61MG68NO_hjp8TIk3-124" value="4" style="strokeWidth=1;shadow=0;dashed=0;align=center;html=1;shape=mxgraph.mockup.forms.rrect;rSize=0;strokeColor=#999999;fontColor=#999999;" vertex="1" parent="nvD61MG68NO_hjp8TIk3-110">
          <mxGeometry x="157.5" y="76.79999999999998" width="45" height="31.999999999999993" as="geometry" />
        </mxCell>
        <mxCell id="nvD61MG68NO_hjp8TIk3-125" value="5" style="strokeWidth=1;shadow=0;dashed=0;align=center;html=1;shape=mxgraph.mockup.forms.rrect;rSize=0;strokeColor=#999999;fontColor=#999999;" vertex="1" parent="nvD61MG68NO_hjp8TIk3-110">
          <mxGeometry x="202.49999999999997" y="76.79999999999998" width="45" height="31.999999999999993" as="geometry" />
        </mxCell>
        <mxCell id="nvD61MG68NO_hjp8TIk3-126" value="6" style="strokeWidth=1;shadow=0;dashed=0;align=center;html=1;shape=mxgraph.mockup.forms.rrect;rSize=0;strokeColor=#999999;fontColor=#999999;" vertex="1" parent="nvD61MG68NO_hjp8TIk3-110">
          <mxGeometry x="247.49999999999997" y="76.79999999999998" width="45" height="31.999999999999993" as="geometry" />
        </mxCell>
        <mxCell id="nvD61MG68NO_hjp8TIk3-127" value="7" style="strokeWidth=1;shadow=0;dashed=0;align=center;html=1;shape=mxgraph.mockup.forms.rrect;rSize=0;strokeColor=#999999;fontColor=#999999;" vertex="1" parent="nvD61MG68NO_hjp8TIk3-110">
          <mxGeometry x="292.5" y="76.79999999999998" width="45" height="31.999999999999993" as="geometry" />
        </mxCell>
        <mxCell id="nvD61MG68NO_hjp8TIk3-128" value="8" style="strokeWidth=1;shadow=0;dashed=0;align=center;html=1;shape=mxgraph.mockup.forms.rrect;rSize=0;strokeColor=#999999;fontColor=#999999;" vertex="1" parent="nvD61MG68NO_hjp8TIk3-110">
          <mxGeometry x="22.5" y="108.79999999999998" width="45" height="31.999999999999993" as="geometry" />
        </mxCell>
        <mxCell id="nvD61MG68NO_hjp8TIk3-129" value="9" style="strokeWidth=1;shadow=0;dashed=0;align=center;html=1;shape=mxgraph.mockup.forms.rrect;rSize=0;strokeColor=#999999;fontColor=#999999;" vertex="1" parent="nvD61MG68NO_hjp8TIk3-110">
          <mxGeometry x="67.5" y="108.79999999999998" width="45" height="31.999999999999993" as="geometry" />
        </mxCell>
        <mxCell id="nvD61MG68NO_hjp8TIk3-130" value="10" style="strokeWidth=1;shadow=0;dashed=0;align=center;html=1;shape=mxgraph.mockup.forms.rrect;rSize=0;strokeColor=#999999;fontColor=#999999;" vertex="1" parent="nvD61MG68NO_hjp8TIk3-110">
          <mxGeometry x="112.49999999999999" y="108.79999999999998" width="45" height="31.999999999999993" as="geometry" />
        </mxCell>
        <mxCell id="nvD61MG68NO_hjp8TIk3-131" value="11" style="strokeWidth=1;shadow=0;dashed=0;align=center;html=1;shape=mxgraph.mockup.forms.rrect;rSize=0;strokeColor=#999999;fontColor=#999999;" vertex="1" parent="nvD61MG68NO_hjp8TIk3-110">
          <mxGeometry x="157.5" y="108.79999999999998" width="45" height="31.999999999999993" as="geometry" />
        </mxCell>
        <mxCell id="nvD61MG68NO_hjp8TIk3-132" value="12" style="strokeWidth=1;shadow=0;dashed=0;align=center;html=1;shape=mxgraph.mockup.forms.rrect;rSize=0;strokeColor=#999999;fontColor=#999999;" vertex="1" parent="nvD61MG68NO_hjp8TIk3-110">
          <mxGeometry x="202.49999999999997" y="108.79999999999998" width="45" height="31.999999999999993" as="geometry" />
        </mxCell>
        <mxCell id="nvD61MG68NO_hjp8TIk3-133" value="13" style="strokeWidth=1;shadow=0;dashed=0;align=center;html=1;shape=mxgraph.mockup.forms.rrect;rSize=0;strokeColor=#999999;fontColor=#999999;" vertex="1" parent="nvD61MG68NO_hjp8TIk3-110">
          <mxGeometry x="247.49999999999997" y="108.79999999999998" width="45" height="31.999999999999993" as="geometry" />
        </mxCell>
        <mxCell id="nvD61MG68NO_hjp8TIk3-134" value="14" style="strokeWidth=1;shadow=0;dashed=0;align=center;html=1;shape=mxgraph.mockup.forms.rrect;rSize=0;strokeColor=#999999;fontColor=#999999;" vertex="1" parent="nvD61MG68NO_hjp8TIk3-110">
          <mxGeometry x="292.5" y="108.79999999999998" width="45" height="31.999999999999993" as="geometry" />
        </mxCell>
        <mxCell id="nvD61MG68NO_hjp8TIk3-135" value="15" style="strokeWidth=1;shadow=0;dashed=0;align=center;html=1;shape=mxgraph.mockup.forms.rrect;rSize=0;strokeColor=#999999;fontColor=#999999;" vertex="1" parent="nvD61MG68NO_hjp8TIk3-110">
          <mxGeometry x="22.5" y="140.8" width="45" height="31.999999999999993" as="geometry" />
        </mxCell>
        <mxCell id="nvD61MG68NO_hjp8TIk3-136" value="16" style="strokeWidth=1;shadow=0;dashed=0;align=center;html=1;shape=mxgraph.mockup.forms.rrect;rSize=0;strokeColor=#999999;fontColor=#999999;" vertex="1" parent="nvD61MG68NO_hjp8TIk3-110">
          <mxGeometry x="67.5" y="140.8" width="45" height="31.999999999999993" as="geometry" />
        </mxCell>
        <mxCell id="nvD61MG68NO_hjp8TIk3-137" value="17" style="strokeWidth=1;shadow=0;dashed=0;align=center;html=1;shape=mxgraph.mockup.forms.rrect;rSize=0;strokeColor=#999999;fontColor=#999999;" vertex="1" parent="nvD61MG68NO_hjp8TIk3-110">
          <mxGeometry x="112.49999999999999" y="140.8" width="45" height="31.999999999999993" as="geometry" />
        </mxCell>
        <mxCell id="nvD61MG68NO_hjp8TIk3-138" value="18" style="strokeWidth=1;shadow=0;dashed=0;align=center;html=1;shape=mxgraph.mockup.forms.rrect;rSize=0;strokeColor=#999999;fontColor=#999999;" vertex="1" parent="nvD61MG68NO_hjp8TIk3-110">
          <mxGeometry x="157.5" y="140.8" width="45" height="31.999999999999993" as="geometry" />
        </mxCell>
        <mxCell id="nvD61MG68NO_hjp8TIk3-139" value="19" style="strokeWidth=1;shadow=0;dashed=0;align=center;html=1;shape=mxgraph.mockup.forms.rrect;rSize=0;strokeColor=#999999;fontColor=#999999;" vertex="1" parent="nvD61MG68NO_hjp8TIk3-110">
          <mxGeometry x="202.49999999999997" y="140.8" width="45" height="31.999999999999993" as="geometry" />
        </mxCell>
        <mxCell id="nvD61MG68NO_hjp8TIk3-140" value="20" style="strokeWidth=1;shadow=0;dashed=0;align=center;html=1;shape=mxgraph.mockup.forms.rrect;rSize=0;strokeColor=#999999;fontColor=#999999;" vertex="1" parent="nvD61MG68NO_hjp8TIk3-110">
          <mxGeometry x="247.49999999999997" y="140.8" width="45" height="31.999999999999993" as="geometry" />
        </mxCell>
        <mxCell id="nvD61MG68NO_hjp8TIk3-141" value="21" style="strokeWidth=1;shadow=0;dashed=0;align=center;html=1;shape=mxgraph.mockup.forms.rrect;rSize=0;strokeColor=#999999;fontColor=#999999;" vertex="1" parent="nvD61MG68NO_hjp8TIk3-110">
          <mxGeometry x="292.5" y="140.8" width="45" height="31.999999999999993" as="geometry" />
        </mxCell>
        <mxCell id="nvD61MG68NO_hjp8TIk3-142" value="22" style="strokeWidth=1;shadow=0;dashed=0;align=center;html=1;shape=mxgraph.mockup.forms.rrect;rSize=0;strokeColor=#999999;fontColor=#999999;" vertex="1" parent="nvD61MG68NO_hjp8TIk3-110">
          <mxGeometry x="22.5" y="172.79999999999998" width="45" height="31.999999999999993" as="geometry" />
        </mxCell>
        <mxCell id="nvD61MG68NO_hjp8TIk3-143" value="23" style="strokeWidth=1;shadow=0;dashed=0;align=center;html=1;shape=mxgraph.mockup.forms.rrect;rSize=0;strokeColor=#999999;fontColor=#999999;" vertex="1" parent="nvD61MG68NO_hjp8TIk3-110">
          <mxGeometry x="67.5" y="172.79999999999998" width="45" height="31.999999999999993" as="geometry" />
        </mxCell>
        <mxCell id="nvD61MG68NO_hjp8TIk3-144" value="25" style="strokeWidth=1;shadow=0;dashed=0;align=center;html=1;shape=mxgraph.mockup.forms.rrect;rSize=0;strokeColor=#999999;fontColor=#999999;" vertex="1" parent="nvD61MG68NO_hjp8TIk3-110">
          <mxGeometry x="157.5" y="172.79999999999998" width="45" height="31.999999999999993" as="geometry" />
        </mxCell>
        <mxCell id="nvD61MG68NO_hjp8TIk3-145" value="26" style="strokeWidth=1;shadow=0;dashed=0;align=center;html=1;shape=mxgraph.mockup.forms.rrect;rSize=0;strokeColor=#999999;fontColor=#999999;" vertex="1" parent="nvD61MG68NO_hjp8TIk3-110">
          <mxGeometry x="202.49999999999997" y="172.79999999999998" width="45" height="31.999999999999993" as="geometry" />
        </mxCell>
        <mxCell id="nvD61MG68NO_hjp8TIk3-146" value="27" style="strokeWidth=1;shadow=0;dashed=0;align=center;html=1;shape=mxgraph.mockup.forms.rrect;rSize=0;strokeColor=#999999;fontColor=#999999;" vertex="1" parent="nvD61MG68NO_hjp8TIk3-110">
          <mxGeometry x="247.49999999999997" y="172.79999999999998" width="45" height="31.999999999999993" as="geometry" />
        </mxCell>
        <mxCell id="nvD61MG68NO_hjp8TIk3-147" value="28" style="strokeWidth=1;shadow=0;dashed=0;align=center;html=1;shape=mxgraph.mockup.forms.rrect;rSize=0;strokeColor=#999999;fontColor=#999999;" vertex="1" parent="nvD61MG68NO_hjp8TIk3-110">
          <mxGeometry x="292.5" y="172.79999999999998" width="45" height="31.999999999999993" as="geometry" />
        </mxCell>
        <mxCell id="nvD61MG68NO_hjp8TIk3-148" value="29" style="strokeWidth=1;shadow=0;dashed=0;align=center;html=1;shape=mxgraph.mockup.forms.rrect;rSize=0;strokeColor=#999999;fontColor=#999999;" vertex="1" parent="nvD61MG68NO_hjp8TIk3-110">
          <mxGeometry x="22.5" y="204.79999999999995" width="45" height="31.999999999999993" as="geometry" />
        </mxCell>
        <mxCell id="nvD61MG68NO_hjp8TIk3-149" value="30" style="strokeWidth=1;shadow=0;dashed=0;align=center;html=1;shape=mxgraph.mockup.forms.rrect;rSize=0;strokeColor=#999999;fontColor=#999999;" vertex="1" parent="nvD61MG68NO_hjp8TIk3-110">
          <mxGeometry x="67.5" y="204.79999999999995" width="45" height="31.999999999999993" as="geometry" />
        </mxCell>
        <mxCell id="nvD61MG68NO_hjp8TIk3-150" value="31" style="strokeWidth=1;shadow=0;dashed=0;align=center;html=1;shape=mxgraph.mockup.forms.rrect;rSize=0;strokeColor=#999999;fontColor=#999999;" vertex="1" parent="nvD61MG68NO_hjp8TIk3-110">
          <mxGeometry x="112.49999999999999" y="204.79999999999995" width="45" height="31.999999999999993" as="geometry" />
        </mxCell>
        <mxCell id="nvD61MG68NO_hjp8TIk3-151" value="1" style="strokeWidth=1;shadow=0;dashed=0;align=center;html=1;shape=mxgraph.mockup.forms.rrect;rSize=0;strokeColor=#999999;fontColor=#999999;fillColor=#ddeeff;" vertex="1" parent="nvD61MG68NO_hjp8TIk3-110">
          <mxGeometry x="157.5" y="204.79999999999995" width="45" height="31.999999999999993" as="geometry" />
        </mxCell>
        <mxCell id="nvD61MG68NO_hjp8TIk3-152" value="2" style="strokeWidth=1;shadow=0;dashed=0;align=center;html=1;shape=mxgraph.mockup.forms.rrect;rSize=0;strokeColor=#999999;fontColor=#999999;fillColor=#ddeeff;" vertex="1" parent="nvD61MG68NO_hjp8TIk3-110">
          <mxGeometry x="202.49999999999997" y="204.79999999999995" width="45" height="31.999999999999993" as="geometry" />
        </mxCell>
        <mxCell id="nvD61MG68NO_hjp8TIk3-153" value="3" style="strokeWidth=1;shadow=0;dashed=0;align=center;html=1;shape=mxgraph.mockup.forms.rrect;rSize=0;strokeColor=#999999;fontColor=#999999;fillColor=#ddeeff;" vertex="1" parent="nvD61MG68NO_hjp8TIk3-110">
          <mxGeometry x="247.49999999999997" y="204.79999999999995" width="45" height="31.999999999999993" as="geometry" />
        </mxCell>
        <mxCell id="nvD61MG68NO_hjp8TIk3-154" value="4" style="strokeWidth=1;shadow=0;dashed=0;align=center;html=1;shape=mxgraph.mockup.forms.rrect;rSize=0;strokeColor=#999999;fontColor=#999999;fillColor=#ddeeff;" vertex="1" parent="nvD61MG68NO_hjp8TIk3-110">
          <mxGeometry x="292.5" y="204.79999999999995" width="45" height="31.999999999999993" as="geometry" />
        </mxCell>
        <mxCell id="nvD61MG68NO_hjp8TIk3-155" value="5" style="strokeWidth=1;shadow=0;dashed=0;align=center;html=1;shape=mxgraph.mockup.forms.rrect;rSize=0;strokeColor=#999999;fontColor=#999999;fillColor=#ddeeff;" vertex="1" parent="nvD61MG68NO_hjp8TIk3-110">
          <mxGeometry x="22.5" y="236.8" width="45" height="31.999999999999993" as="geometry" />
        </mxCell>
        <mxCell id="nvD61MG68NO_hjp8TIk3-156" value="6" style="strokeWidth=1;shadow=0;dashed=0;align=center;html=1;shape=mxgraph.mockup.forms.rrect;rSize=0;strokeColor=#999999;fontColor=#999999;fillColor=#ddeeff;" vertex="1" parent="nvD61MG68NO_hjp8TIk3-110">
          <mxGeometry x="67.5" y="236.8" width="45" height="31.999999999999993" as="geometry" />
        </mxCell>
        <mxCell id="nvD61MG68NO_hjp8TIk3-157" value="7" style="strokeWidth=1;shadow=0;dashed=0;align=center;html=1;shape=mxgraph.mockup.forms.rrect;rSize=0;strokeColor=#999999;fontColor=#999999;fillColor=#ddeeff;" vertex="1" parent="nvD61MG68NO_hjp8TIk3-110">
          <mxGeometry x="112.49999999999999" y="236.8" width="45" height="31.999999999999993" as="geometry" />
        </mxCell>
        <mxCell id="nvD61MG68NO_hjp8TIk3-158" value="8" style="strokeWidth=1;shadow=0;dashed=0;align=center;html=1;shape=mxgraph.mockup.forms.rrect;rSize=0;strokeColor=#999999;fontColor=#999999;fillColor=#ddeeff;" vertex="1" parent="nvD61MG68NO_hjp8TIk3-110">
          <mxGeometry x="157.5" y="236.8" width="45" height="31.999999999999993" as="geometry" />
        </mxCell>
        <mxCell id="nvD61MG68NO_hjp8TIk3-159" value="9" style="strokeWidth=1;shadow=0;dashed=0;align=center;html=1;shape=mxgraph.mockup.forms.rrect;rSize=0;strokeColor=#999999;fontColor=#999999;fillColor=#ddeeff;" vertex="1" parent="nvD61MG68NO_hjp8TIk3-110">
          <mxGeometry x="202.49999999999997" y="236.8" width="45" height="31.999999999999993" as="geometry" />
        </mxCell>
        <mxCell id="nvD61MG68NO_hjp8TIk3-160" value="10" style="strokeWidth=1;shadow=0;dashed=0;align=center;html=1;shape=mxgraph.mockup.forms.rrect;rSize=0;strokeColor=#999999;fontColor=#999999;fillColor=#ddeeff;" vertex="1" parent="nvD61MG68NO_hjp8TIk3-110">
          <mxGeometry x="247.49999999999997" y="236.8" width="45" height="31.999999999999993" as="geometry" />
        </mxCell>
        <mxCell id="nvD61MG68NO_hjp8TIk3-161" value="11" style="strokeWidth=1;shadow=0;dashed=0;align=center;html=1;shape=mxgraph.mockup.forms.rrect;rSize=0;strokeColor=#999999;fontColor=#999999;fillColor=#ddeeff;" vertex="1" parent="nvD61MG68NO_hjp8TIk3-110">
          <mxGeometry x="292.5" y="236.8" width="45" height="31.999999999999993" as="geometry" />
        </mxCell>
        <mxCell id="nvD61MG68NO_hjp8TIk3-162" value="24" style="strokeWidth=1;shadow=0;dashed=0;align=center;html=1;shape=mxgraph.mockup.forms.rrect;rSize=0;strokeColor=#ff0000;fontColor=#ffffff;strokeWidth=2;fillColor=#008cff;" vertex="1" parent="nvD61MG68NO_hjp8TIk3-110">
          <mxGeometry x="112.49999999999999" y="172.79999999999998" width="45" height="31.999999999999993" as="geometry" />
        </mxCell>
        <mxCell id="nvD61MG68NO_hjp8TIk3-204" value="Dates Covered" style="shape=table;startSize=30;container=1;collapsible=1;childLayout=tableLayout;fixedRows=1;rowLines=0;fontStyle=1;align=center;resizeLast=1;html=1;whiteSpace=wrap;" vertex="1" parent="1">
          <mxGeometry x="220" y="560" width="180" height="150" as="geometry" />
        </mxCell>
        <mxCell id="nvD61MG68NO_hjp8TIk3-205" value="" style="shape=tableRow;horizontal=0;startSize=0;swimlaneHead=0;swimlaneBody=0;fillColor=none;collapsible=0;dropTarget=0;points=[[0,0.5],[1,0.5]];portConstraint=eastwest;top=0;left=0;right=0;bottom=0;html=1;" vertex="1" parent="nvD61MG68NO_hjp8TIk3-204">
          <mxGeometry y="30" width="180" height="30" as="geometry" />
        </mxCell>
        <mxCell id="nvD61MG68NO_hjp8TIk3-206" value="Date" style="shape=partialRectangle;connectable=0;fillColor=none;top=0;left=0;bottom=0;right=0;fontStyle=1;overflow=hidden;html=1;whiteSpace=wrap;" vertex="1" parent="nvD61MG68NO_hjp8TIk3-205">
          <mxGeometry width="60" height="30" as="geometry">
            <mxRectangle width="60" height="30" as="alternateBounds" />
          </mxGeometry>
        </mxCell>
        <mxCell id="nvD61MG68NO_hjp8TIk3-207" value="Covered For" style="shape=partialRectangle;connectable=0;fillColor=none;top=0;left=0;bottom=0;right=0;align=left;spacingLeft=6;fontStyle=5;overflow=hidden;html=1;whiteSpace=wrap;" vertex="1" parent="nvD61MG68NO_hjp8TIk3-205">
          <mxGeometry x="60" width="120" height="30" as="geometry">
            <mxRectangle width="120" height="30" as="alternateBounds" />
          </mxGeometry>
        </mxCell>
        <mxCell id="nvD61MG68NO_hjp8TIk3-208" value="" style="shape=tableRow;horizontal=0;startSize=0;swimlaneHead=0;swimlaneBody=0;fillColor=none;collapsible=0;dropTarget=0;points=[[0,0.5],[1,0.5]];portConstraint=eastwest;top=0;left=0;right=0;bottom=1;html=1;" vertex="1" parent="nvD61MG68NO_hjp8TIk3-204">
          <mxGeometry y="60" width="180" height="30" as="geometry" />
        </mxCell>
        <mxCell id="nvD61MG68NO_hjp8TIk3-209" value="2nd" style="shape=partialRectangle;connectable=0;fillColor=none;top=0;left=0;bottom=0;right=0;fontStyle=1;overflow=hidden;html=1;whiteSpace=wrap;" vertex="1" parent="nvD61MG68NO_hjp8TIk3-208">
          <mxGeometry width="60" height="30" as="geometry">
            <mxRectangle width="60" height="30" as="alternateBounds" />
          </mxGeometry>
        </mxCell>
        <mxCell id="nvD61MG68NO_hjp8TIk3-210" value="Abby" style="shape=partialRectangle;connectable=0;fillColor=none;top=0;left=0;bottom=0;right=0;align=left;spacingLeft=6;fontStyle=5;overflow=hidden;html=1;whiteSpace=wrap;" vertex="1" parent="nvD61MG68NO_hjp8TIk3-208">
          <mxGeometry x="60" width="120" height="30" as="geometry">
            <mxRectangle width="120" height="30" as="alternateBounds" />
          </mxGeometry>
        </mxCell>
        <mxCell id="nvD61MG68NO_hjp8TIk3-211" value="" style="shape=tableRow;horizontal=0;startSize=0;swimlaneHead=0;swimlaneBody=0;fillColor=none;collapsible=0;dropTarget=0;points=[[0,0.5],[1,0.5]];portConstraint=eastwest;top=0;left=0;right=0;bottom=0;html=1;" vertex="1" parent="nvD61MG68NO_hjp8TIk3-204">
          <mxGeometry y="90" width="180" height="30" as="geometry" />
        </mxCell>
        <mxCell id="nvD61MG68NO_hjp8TIk3-212" value="10th" style="shape=partialRectangle;connectable=0;fillColor=none;top=0;left=0;bottom=0;right=0;editable=1;overflow=hidden;html=1;whiteSpace=wrap;" vertex="1" parent="nvD61MG68NO_hjp8TIk3-211">
          <mxGeometry width="60" height="30" as="geometry">
            <mxRectangle width="60" height="30" as="alternateBounds" />
          </mxGeometry>
        </mxCell>
        <mxCell id="nvD61MG68NO_hjp8TIk3-213" value="Jeremy" style="shape=partialRectangle;connectable=0;fillColor=none;top=0;left=0;bottom=0;right=0;align=left;spacingLeft=6;overflow=hidden;html=1;whiteSpace=wrap;" vertex="1" parent="nvD61MG68NO_hjp8TIk3-211">
          <mxGeometry x="60" width="120" height="30" as="geometry">
            <mxRectangle width="120" height="30" as="alternateBounds" />
          </mxGeometry>
        </mxCell>
        <mxCell id="nvD61MG68NO_hjp8TIk3-214" value="" style="shape=tableRow;horizontal=0;startSize=0;swimlaneHead=0;swimlaneBody=0;fillColor=none;collapsible=0;dropTarget=0;points=[[0,0.5],[1,0.5]];portConstraint=eastwest;top=0;left=0;right=0;bottom=0;html=1;" vertex="1" parent="nvD61MG68NO_hjp8TIk3-204">
          <mxGeometry y="120" width="180" height="30" as="geometry" />
        </mxCell>
        <mxCell id="nvD61MG68NO_hjp8TIk3-215" value="" style="shape=partialRectangle;connectable=0;fillColor=none;top=0;left=0;bottom=0;right=0;editable=1;overflow=hidden;html=1;whiteSpace=wrap;" vertex="1" parent="nvD61MG68NO_hjp8TIk3-214">
          <mxGeometry width="60" height="30" as="geometry">
            <mxRectangle width="60" height="30" as="alternateBounds" />
          </mxGeometry>
        </mxCell>
        <mxCell id="nvD61MG68NO_hjp8TIk3-216" value="" style="shape=partialRectangle;connectable=0;fillColor=none;top=0;left=0;bottom=0;right=0;align=left;spacingLeft=6;overflow=hidden;html=1;whiteSpace=wrap;" vertex="1" parent="nvD61MG68NO_hjp8TIk3-214">
          <mxGeometry x="60" width="120" height="30" as="geometry">
            <mxRectangle width="120" height="30" as="alternateBounds" />
          </mxGeometry>
        </mxCell>
        <mxCell id="nvD61MG68NO_hjp8TIk3-217" value="OnCall&lt;span style=&quot;white-space: pre;&quot;&gt;&#x9;&lt;/span&gt;&lt;span style=&quot;white-space: pre;&quot;&gt;&#x9;&lt;/span&gt;12 Shifts" style="shape=table;startSize=30;container=1;collapsible=1;childLayout=tableLayout;fixedRows=1;rowLines=0;fontStyle=1;align=center;resizeLast=1;html=1;whiteSpace=wrap;" vertex="1" parent="1">
          <mxGeometry x="40" y="560" width="180" height="148" as="geometry" />
        </mxCell>
        <mxCell id="nvD61MG68NO_hjp8TIk3-218" value="" style="shape=tableRow;horizontal=0;startSize=0;swimlaneHead=0;swimlaneBody=0;fillColor=none;collapsible=0;dropTarget=0;points=[[0,0.5],[1,0.5]];portConstraint=eastwest;top=0;left=0;right=0;bottom=0;html=1;" vertex="1" parent="nvD61MG68NO_hjp8TIk3-217">
          <mxGeometry y="30" width="180" height="30" as="geometry" />
        </mxCell>
        <mxCell id="nvD61MG68NO_hjp8TIk3-219" value="23rd" style="shape=partialRectangle;connectable=0;fillColor=none;top=0;left=0;bottom=0;right=0;fontStyle=1;overflow=hidden;html=1;whiteSpace=wrap;" vertex="1" parent="nvD61MG68NO_hjp8TIk3-218">
          <mxGeometry width="60" height="30" as="geometry">
            <mxRectangle width="60" height="30" as="alternateBounds" />
          </mxGeometry>
        </mxCell>
        <mxCell id="nvD61MG68NO_hjp8TIk3-220" value="" style="shape=partialRectangle;connectable=0;fillColor=none;top=0;left=0;bottom=0;right=0;align=left;spacingLeft=6;fontStyle=5;overflow=hidden;html=1;whiteSpace=wrap;" vertex="1" parent="nvD61MG68NO_hjp8TIk3-218">
          <mxGeometry x="60" width="120" height="30" as="geometry">
            <mxRectangle width="120" height="30" as="alternateBounds" />
          </mxGeometry>
        </mxCell>
        <mxCell id="nvD61MG68NO_hjp8TIk3-221" value="" style="shape=tableRow;horizontal=0;startSize=0;swimlaneHead=0;swimlaneBody=0;fillColor=none;collapsible=0;dropTarget=0;points=[[0,0.5],[1,0.5]];portConstraint=eastwest;top=0;left=0;right=0;bottom=1;html=1;" vertex="1" parent="nvD61MG68NO_hjp8TIk3-217">
          <mxGeometry y="60" width="180" height="30" as="geometry" />
        </mxCell>
        <mxCell id="nvD61MG68NO_hjp8TIk3-222" value="24th" style="shape=partialRectangle;connectable=0;fillColor=none;top=0;left=0;bottom=0;right=0;fontStyle=1;overflow=hidden;html=1;whiteSpace=wrap;" vertex="1" parent="nvD61MG68NO_hjp8TIk3-221">
          <mxGeometry width="60" height="30" as="geometry">
            <mxRectangle width="60" height="30" as="alternateBounds" />
          </mxGeometry>
        </mxCell>
        <mxCell id="nvD61MG68NO_hjp8TIk3-223" value="" style="shape=partialRectangle;connectable=0;fillColor=none;top=0;left=0;bottom=0;right=0;align=left;spacingLeft=6;fontStyle=5;overflow=hidden;html=1;whiteSpace=wrap;" vertex="1" parent="nvD61MG68NO_hjp8TIk3-221">
          <mxGeometry x="60" width="120" height="30" as="geometry">
            <mxRectangle width="120" height="30" as="alternateBounds" />
          </mxGeometry>
        </mxCell>
        <mxCell id="nvD61MG68NO_hjp8TIk3-224" value="" style="shape=tableRow;horizontal=0;startSize=0;swimlaneHead=0;swimlaneBody=0;fillColor=none;collapsible=0;dropTarget=0;points=[[0,0.5],[1,0.5]];portConstraint=eastwest;top=0;left=0;right=0;bottom=0;html=1;" vertex="1" parent="nvD61MG68NO_hjp8TIk3-217">
          <mxGeometry y="90" width="180" height="28" as="geometry" />
        </mxCell>
        <mxCell id="nvD61MG68NO_hjp8TIk3-225" value="" style="shape=partialRectangle;connectable=0;fillColor=none;top=0;left=0;bottom=0;right=0;editable=1;overflow=hidden;html=1;whiteSpace=wrap;" vertex="1" parent="nvD61MG68NO_hjp8TIk3-224">
          <mxGeometry width="60" height="28" as="geometry">
            <mxRectangle width="60" height="28" as="alternateBounds" />
          </mxGeometry>
        </mxCell>
        <mxCell id="nvD61MG68NO_hjp8TIk3-226" value="" style="shape=partialRectangle;connectable=0;fillColor=none;top=0;left=0;bottom=0;right=0;align=left;spacingLeft=6;overflow=hidden;html=1;whiteSpace=wrap;" vertex="1" parent="nvD61MG68NO_hjp8TIk3-224">
          <mxGeometry x="60" width="120" height="28" as="geometry">
            <mxRectangle width="120" height="28" as="alternateBounds" />
          </mxGeometry>
        </mxCell>
        <mxCell id="nvD61MG68NO_hjp8TIk3-227" value="" style="shape=tableRow;horizontal=0;startSize=0;swimlaneHead=0;swimlaneBody=0;fillColor=none;collapsible=0;dropTarget=0;points=[[0,0.5],[1,0.5]];portConstraint=eastwest;top=0;left=0;right=0;bottom=0;html=1;" vertex="1" parent="nvD61MG68NO_hjp8TIk3-217">
          <mxGeometry y="118" width="180" height="30" as="geometry" />
        </mxCell>
        <mxCell id="nvD61MG68NO_hjp8TIk3-228" value="" style="shape=partialRectangle;connectable=0;fillColor=none;top=0;left=0;bottom=0;right=0;editable=1;overflow=hidden;html=1;whiteSpace=wrap;" vertex="1" parent="nvD61MG68NO_hjp8TIk3-227">
          <mxGeometry width="60" height="30" as="geometry">
            <mxRectangle width="60" height="30" as="alternateBounds" />
          </mxGeometry>
        </mxCell>
        <mxCell id="nvD61MG68NO_hjp8TIk3-229" value="" style="shape=partialRectangle;connectable=0;fillColor=none;top=0;left=0;bottom=0;right=0;align=left;spacingLeft=6;overflow=hidden;html=1;whiteSpace=wrap;" vertex="1" parent="nvD61MG68NO_hjp8TIk3-227">
          <mxGeometry x="60" width="120" height="30" as="geometry">
            <mxRectangle width="120" height="30" as="alternateBounds" />
          </mxGeometry>
        </mxCell>
        <mxCell id="nvD61MG68NO_hjp8TIk3-230" value="" style="shape=tableRow;horizontal=0;startSize=0;swimlaneHead=0;swimlaneBody=0;fillColor=none;collapsible=0;dropTarget=0;points=[[0,0.5],[1,0.5]];portConstraint=eastwest;top=0;left=0;right=0;bottom=1;html=1;" vertex="1" parent="1">
          <mxGeometry x="220" y="658" width="180" height="30" as="geometry" />
        </mxCell>
        <mxCell id="nvD61MG68NO_hjp8TIk3-234" value="Staff" style="text;strokeColor=none;fillColor=none;align=left;verticalAlign=top;spacingLeft=4;spacingRight=4;overflow=hidden;rotatable=0;points=[[0,0.5],[1,0.5]];portConstraint=eastwest;whiteSpace=wrap;html=1;" vertex="1" parent="1">
          <mxGeometry x="420" y="556" width="60" height="26" as="geometry" />
        </mxCell>
        <mxCell id="nvD61MG68NO_hjp8TIk3-235" value="" style="verticalLabelPosition=bottom;sketch=0;html=1;fillColor=#282828;strokeColor=none;verticalAlign=top;pointerEvents=1;align=center;shape=mxgraph.cisco_safe.people_places_things_icons.icon9;" vertex="1" parent="1">
          <mxGeometry x="430" y="599" width="20" height="20" as="geometry" />
        </mxCell>
        <mxCell id="nvD61MG68NO_hjp8TIk3-236" value="Abra" style="text;html=1;align=center;verticalAlign=middle;resizable=0;points=[];autosize=1;strokeColor=none;fillColor=none;" vertex="1" parent="1">
          <mxGeometry x="460" y="594" width="50" height="30" as="geometry" />
        </mxCell>
        <mxCell id="nvD61MG68NO_hjp8TIk3-237" value="" style="verticalLabelPosition=bottom;sketch=0;html=1;fillColor=#282828;strokeColor=none;verticalAlign=top;pointerEvents=1;align=center;shape=mxgraph.cisco_safe.people_places_things_icons.icon9;" vertex="1" parent="1">
          <mxGeometry x="430" y="639" width="20" height="20" as="geometry" />
        </mxCell>
        <mxCell id="nvD61MG68NO_hjp8TIk3-238" value="Barbara" style="text;html=1;align=center;verticalAlign=middle;resizable=0;points=[];autosize=1;strokeColor=none;fillColor=none;" vertex="1" parent="1">
          <mxGeometry x="450" y="634" width="70" height="30" as="geometry" />
        </mxCell>
        <mxCell id="nvD61MG68NO_hjp8TIk3-239" value="" style="verticalLabelPosition=bottom;sketch=0;html=1;fillColor=#282828;strokeColor=none;verticalAlign=top;pointerEvents=1;align=center;shape=mxgraph.cisco_safe.people_places_things_icons.icon9;" vertex="1" parent="1">
          <mxGeometry x="430" y="679" width="20" height="20" as="geometry" />
        </mxCell>
        <mxCell id="nvD61MG68NO_hjp8TIk3-240" value="Charlie" style="text;html=1;align=center;verticalAlign=middle;resizable=0;points=[];autosize=1;strokeColor=none;fillColor=none;" vertex="1" parent="1">
          <mxGeometry x="455" y="674" width="60" height="30" as="geometry" />
        </mxCell>
        <mxCell id="nvD61MG68NO_hjp8TIk3-241" value="Welcome Charlie! Your next callout is Thursday 5th November. You are covering for Abra." style="text;html=1;align=center;verticalAlign=middle;resizable=0;points=[];autosize=1;strokeColor=none;fillColor=none;fontStyle=1" vertex="1" parent="1">
          <mxGeometry x="60" y="150" width="530" height="30" as="geometry" />
        </mxCell>
        <mxCell id="nvD61MG68NO_hjp8TIk3-245" value="12" style="text;html=1;align=center;verticalAlign=middle;resizable=0;points=[];autosize=1;strokeColor=none;fillColor=none;" vertex="1" parent="1">
          <mxGeometry x="620" y="591.5" width="40" height="30" as="geometry" />
        </mxCell>
        <mxCell id="nvD61MG68NO_hjp8TIk3-246" value="12" style="text;html=1;align=center;verticalAlign=middle;resizable=0;points=[];autosize=1;strokeColor=none;fillColor=none;" vertex="1" parent="1">
          <mxGeometry x="620" y="639" width="40" height="30" as="geometry" />
        </mxCell>
        <mxCell id="nvD61MG68NO_hjp8TIk3-247" value="12" style="text;html=1;align=center;verticalAlign=middle;resizable=0;points=[];autosize=1;strokeColor=none;fillColor=none;" vertex="1" parent="1">
          <mxGeometry x="620" y="676" width="40" height="30" as="geometry" />
        </mxCell>
        <mxCell id="nvD61MG68NO_hjp8TIk3-248" value="Scheduled" style="text;html=1;align=center;verticalAlign=middle;resizable=0;points=[];autosize=1;strokeColor=none;fillColor=none;" vertex="1" parent="1">
          <mxGeometry x="600" y="554" width="80" height="30" as="geometry" />
        </mxCell>
        <mxCell id="nvD61MG68NO_hjp8TIk3-250" value="Covering" style="text;html=1;align=center;verticalAlign=middle;resizable=0;points=[];autosize=1;strokeColor=none;fillColor=none;" vertex="1" parent="1">
          <mxGeometry x="750" y="554" width="70" height="30" as="geometry" />
        </mxCell>
        <mxCell id="nvD61MG68NO_hjp8TIk3-251" value="Covered" style="text;html=1;align=center;verticalAlign=middle;resizable=0;points=[];autosize=1;strokeColor=none;fillColor=none;" vertex="1" parent="1">
          <mxGeometry x="680" y="554" width="70" height="30" as="geometry" />
        </mxCell>
        <mxCell id="nvD61MG68NO_hjp8TIk3-252" value="" style="html=1;verticalLabelPosition=bottom;labelBackgroundColor=#ffffff;verticalAlign=top;shadow=0;dashed=0;strokeWidth=2;shape=mxgraph.ios7.misc.down;strokeColor=#0080f0;" vertex="1" parent="1">
          <mxGeometry x="120" y="500" width="200" height="50" as="geometry" />
        </mxCell>
        <mxCell id="nvD61MG68NO_hjp8TIk3-253" value="" style="html=1;verticalLabelPosition=bottom;labelBackgroundColor=#ffffff;verticalAlign=top;shadow=0;dashed=0;strokeWidth=2;shape=mxgraph.ios7.misc.down;strokeColor=#0080f0;" vertex="1" parent="1">
          <mxGeometry x="920" y="500" width="200" height="50" as="geometry" />
        </mxCell>
        <mxCell id="nvD61MG68NO_hjp8TIk3-254" value="Dates Covered" style="shape=table;startSize=30;container=1;collapsible=1;childLayout=tableLayout;fixedRows=1;rowLines=0;fontStyle=1;align=center;resizeLast=1;html=1;whiteSpace=wrap;" vertex="1" parent="1">
          <mxGeometry x="1020" y="559" width="180" height="150" as="geometry" />
        </mxCell>
        <mxCell id="nvD61MG68NO_hjp8TIk3-255" value="" style="shape=tableRow;horizontal=0;startSize=0;swimlaneHead=0;swimlaneBody=0;fillColor=none;collapsible=0;dropTarget=0;points=[[0,0.5],[1,0.5]];portConstraint=eastwest;top=0;left=0;right=0;bottom=0;html=1;" vertex="1" parent="nvD61MG68NO_hjp8TIk3-254">
          <mxGeometry y="30" width="180" height="30" as="geometry" />
        </mxCell>
        <mxCell id="nvD61MG68NO_hjp8TIk3-256" value="Date" style="shape=partialRectangle;connectable=0;fillColor=none;top=0;left=0;bottom=0;right=0;fontStyle=1;overflow=hidden;html=1;whiteSpace=wrap;" vertex="1" parent="nvD61MG68NO_hjp8TIk3-255">
          <mxGeometry width="60" height="30" as="geometry">
            <mxRectangle width="60" height="30" as="alternateBounds" />
          </mxGeometry>
        </mxCell>
        <mxCell id="nvD61MG68NO_hjp8TIk3-257" value="Covered For" style="shape=partialRectangle;connectable=0;fillColor=none;top=0;left=0;bottom=0;right=0;align=left;spacingLeft=6;fontStyle=5;overflow=hidden;html=1;whiteSpace=wrap;" vertex="1" parent="nvD61MG68NO_hjp8TIk3-255">
          <mxGeometry x="60" width="120" height="30" as="geometry">
            <mxRectangle width="120" height="30" as="alternateBounds" />
          </mxGeometry>
        </mxCell>
        <mxCell id="nvD61MG68NO_hjp8TIk3-258" value="" style="shape=tableRow;horizontal=0;startSize=0;swimlaneHead=0;swimlaneBody=0;fillColor=none;collapsible=0;dropTarget=0;points=[[0,0.5],[1,0.5]];portConstraint=eastwest;top=0;left=0;right=0;bottom=1;html=1;" vertex="1" parent="nvD61MG68NO_hjp8TIk3-254">
          <mxGeometry y="60" width="180" height="30" as="geometry" />
        </mxCell>
        <mxCell id="nvD61MG68NO_hjp8TIk3-259" value="2nd" style="shape=partialRectangle;connectable=0;fillColor=none;top=0;left=0;bottom=0;right=0;fontStyle=1;overflow=hidden;html=1;whiteSpace=wrap;" vertex="1" parent="nvD61MG68NO_hjp8TIk3-258">
          <mxGeometry width="60" height="30" as="geometry">
            <mxRectangle width="60" height="30" as="alternateBounds" />
          </mxGeometry>
        </mxCell>
        <mxCell id="nvD61MG68NO_hjp8TIk3-260" value="Abby" style="shape=partialRectangle;connectable=0;fillColor=none;top=0;left=0;bottom=0;right=0;align=left;spacingLeft=6;fontStyle=5;overflow=hidden;html=1;whiteSpace=wrap;" vertex="1" parent="nvD61MG68NO_hjp8TIk3-258">
          <mxGeometry x="60" width="120" height="30" as="geometry">
            <mxRectangle width="120" height="30" as="alternateBounds" />
          </mxGeometry>
        </mxCell>
        <mxCell id="nvD61MG68NO_hjp8TIk3-261" value="" style="shape=tableRow;horizontal=0;startSize=0;swimlaneHead=0;swimlaneBody=0;fillColor=none;collapsible=0;dropTarget=0;points=[[0,0.5],[1,0.5]];portConstraint=eastwest;top=0;left=0;right=0;bottom=0;html=1;" vertex="1" parent="nvD61MG68NO_hjp8TIk3-254">
          <mxGeometry y="90" width="180" height="30" as="geometry" />
        </mxCell>
        <mxCell id="nvD61MG68NO_hjp8TIk3-262" value="10th" style="shape=partialRectangle;connectable=0;fillColor=none;top=0;left=0;bottom=0;right=0;editable=1;overflow=hidden;html=1;whiteSpace=wrap;" vertex="1" parent="nvD61MG68NO_hjp8TIk3-261">
          <mxGeometry width="60" height="30" as="geometry">
            <mxRectangle width="60" height="30" as="alternateBounds" />
          </mxGeometry>
        </mxCell>
        <mxCell id="nvD61MG68NO_hjp8TIk3-263" value="Jeremy" style="shape=partialRectangle;connectable=0;fillColor=none;top=0;left=0;bottom=0;right=0;align=left;spacingLeft=6;overflow=hidden;html=1;whiteSpace=wrap;" vertex="1" parent="nvD61MG68NO_hjp8TIk3-261">
          <mxGeometry x="60" width="120" height="30" as="geometry">
            <mxRectangle width="120" height="30" as="alternateBounds" />
          </mxGeometry>
        </mxCell>
        <mxCell id="nvD61MG68NO_hjp8TIk3-264" value="" style="shape=tableRow;horizontal=0;startSize=0;swimlaneHead=0;swimlaneBody=0;fillColor=none;collapsible=0;dropTarget=0;points=[[0,0.5],[1,0.5]];portConstraint=eastwest;top=0;left=0;right=0;bottom=0;html=1;" vertex="1" parent="nvD61MG68NO_hjp8TIk3-254">
          <mxGeometry y="120" width="180" height="30" as="geometry" />
        </mxCell>
        <mxCell id="nvD61MG68NO_hjp8TIk3-265" value="" style="shape=partialRectangle;connectable=0;fillColor=none;top=0;left=0;bottom=0;right=0;editable=1;overflow=hidden;html=1;whiteSpace=wrap;" vertex="1" parent="nvD61MG68NO_hjp8TIk3-264">
          <mxGeometry width="60" height="30" as="geometry">
            <mxRectangle width="60" height="30" as="alternateBounds" />
          </mxGeometry>
        </mxCell>
        <mxCell id="nvD61MG68NO_hjp8TIk3-266" value="" style="shape=partialRectangle;connectable=0;fillColor=none;top=0;left=0;bottom=0;right=0;align=left;spacingLeft=6;overflow=hidden;html=1;whiteSpace=wrap;" vertex="1" parent="nvD61MG68NO_hjp8TIk3-264">
          <mxGeometry x="60" width="120" height="30" as="geometry">
            <mxRectangle width="120" height="30" as="alternateBounds" />
          </mxGeometry>
        </mxCell>
        <mxCell id="nvD61MG68NO_hjp8TIk3-267" value="OnCall&lt;span style=&quot;white-space: pre;&quot;&gt;&#x9;&lt;/span&gt;&lt;span style=&quot;white-space: pre;&quot;&gt;&#x9;&lt;/span&gt;12 Shifts" style="shape=table;startSize=30;container=1;collapsible=1;childLayout=tableLayout;fixedRows=1;rowLines=0;fontStyle=1;align=center;resizeLast=1;html=1;whiteSpace=wrap;" vertex="1" parent="1">
          <mxGeometry x="840" y="559" width="180" height="148" as="geometry" />
        </mxCell>
        <mxCell id="nvD61MG68NO_hjp8TIk3-268" value="" style="shape=tableRow;horizontal=0;startSize=0;swimlaneHead=0;swimlaneBody=0;fillColor=none;collapsible=0;dropTarget=0;points=[[0,0.5],[1,0.5]];portConstraint=eastwest;top=0;left=0;right=0;bottom=0;html=1;" vertex="1" parent="nvD61MG68NO_hjp8TIk3-267">
          <mxGeometry y="30" width="180" height="30" as="geometry" />
        </mxCell>
        <mxCell id="nvD61MG68NO_hjp8TIk3-269" value="23rd" style="shape=partialRectangle;connectable=0;fillColor=none;top=0;left=0;bottom=0;right=0;fontStyle=1;overflow=hidden;html=1;whiteSpace=wrap;" vertex="1" parent="nvD61MG68NO_hjp8TIk3-268">
          <mxGeometry width="60" height="30" as="geometry">
            <mxRectangle width="60" height="30" as="alternateBounds" />
          </mxGeometry>
        </mxCell>
        <mxCell id="nvD61MG68NO_hjp8TIk3-270" value="" style="shape=partialRectangle;connectable=0;fillColor=none;top=0;left=0;bottom=0;right=0;align=left;spacingLeft=6;fontStyle=5;overflow=hidden;html=1;whiteSpace=wrap;" vertex="1" parent="nvD61MG68NO_hjp8TIk3-268">
          <mxGeometry x="60" width="120" height="30" as="geometry">
            <mxRectangle width="120" height="30" as="alternateBounds" />
          </mxGeometry>
        </mxCell>
        <mxCell id="nvD61MG68NO_hjp8TIk3-271" value="" style="shape=tableRow;horizontal=0;startSize=0;swimlaneHead=0;swimlaneBody=0;fillColor=none;collapsible=0;dropTarget=0;points=[[0,0.5],[1,0.5]];portConstraint=eastwest;top=0;left=0;right=0;bottom=1;html=1;" vertex="1" parent="nvD61MG68NO_hjp8TIk3-267">
          <mxGeometry y="60" width="180" height="30" as="geometry" />
        </mxCell>
        <mxCell id="nvD61MG68NO_hjp8TIk3-272" value="24th" style="shape=partialRectangle;connectable=0;fillColor=none;top=0;left=0;bottom=0;right=0;fontStyle=1;overflow=hidden;html=1;whiteSpace=wrap;" vertex="1" parent="nvD61MG68NO_hjp8TIk3-271">
          <mxGeometry width="60" height="30" as="geometry">
            <mxRectangle width="60" height="30" as="alternateBounds" />
          </mxGeometry>
        </mxCell>
        <mxCell id="nvD61MG68NO_hjp8TIk3-273" value="" style="shape=partialRectangle;connectable=0;fillColor=none;top=0;left=0;bottom=0;right=0;align=left;spacingLeft=6;fontStyle=5;overflow=hidden;html=1;whiteSpace=wrap;" vertex="1" parent="nvD61MG68NO_hjp8TIk3-271">
          <mxGeometry x="60" width="120" height="30" as="geometry">
            <mxRectangle width="120" height="30" as="alternateBounds" />
          </mxGeometry>
        </mxCell>
        <mxCell id="nvD61MG68NO_hjp8TIk3-274" value="" style="shape=tableRow;horizontal=0;startSize=0;swimlaneHead=0;swimlaneBody=0;fillColor=none;collapsible=0;dropTarget=0;points=[[0,0.5],[1,0.5]];portConstraint=eastwest;top=0;left=0;right=0;bottom=0;html=1;" vertex="1" parent="nvD61MG68NO_hjp8TIk3-267">
          <mxGeometry y="90" width="180" height="28" as="geometry" />
        </mxCell>
        <mxCell id="nvD61MG68NO_hjp8TIk3-275" value="" style="shape=partialRectangle;connectable=0;fillColor=none;top=0;left=0;bottom=0;right=0;editable=1;overflow=hidden;html=1;whiteSpace=wrap;" vertex="1" parent="nvD61MG68NO_hjp8TIk3-274">
          <mxGeometry width="60" height="28" as="geometry">
            <mxRectangle width="60" height="28" as="alternateBounds" />
          </mxGeometry>
        </mxCell>
        <mxCell id="nvD61MG68NO_hjp8TIk3-276" value="" style="shape=partialRectangle;connectable=0;fillColor=none;top=0;left=0;bottom=0;right=0;align=left;spacingLeft=6;overflow=hidden;html=1;whiteSpace=wrap;" vertex="1" parent="nvD61MG68NO_hjp8TIk3-274">
          <mxGeometry x="60" width="120" height="28" as="geometry">
            <mxRectangle width="120" height="28" as="alternateBounds" />
          </mxGeometry>
        </mxCell>
        <mxCell id="nvD61MG68NO_hjp8TIk3-277" value="" style="shape=tableRow;horizontal=0;startSize=0;swimlaneHead=0;swimlaneBody=0;fillColor=none;collapsible=0;dropTarget=0;points=[[0,0.5],[1,0.5]];portConstraint=eastwest;top=0;left=0;right=0;bottom=0;html=1;" vertex="1" parent="nvD61MG68NO_hjp8TIk3-267">
          <mxGeometry y="118" width="180" height="30" as="geometry" />
        </mxCell>
        <mxCell id="nvD61MG68NO_hjp8TIk3-278" value="" style="shape=partialRectangle;connectable=0;fillColor=none;top=0;left=0;bottom=0;right=0;editable=1;overflow=hidden;html=1;whiteSpace=wrap;" vertex="1" parent="nvD61MG68NO_hjp8TIk3-277">
          <mxGeometry width="60" height="30" as="geometry">
            <mxRectangle width="60" height="30" as="alternateBounds" />
          </mxGeometry>
        </mxCell>
        <mxCell id="nvD61MG68NO_hjp8TIk3-279" value="" style="shape=partialRectangle;connectable=0;fillColor=none;top=0;left=0;bottom=0;right=0;align=left;spacingLeft=6;overflow=hidden;html=1;whiteSpace=wrap;" vertex="1" parent="nvD61MG68NO_hjp8TIk3-277">
          <mxGeometry x="60" width="120" height="30" as="geometry">
            <mxRectangle width="120" height="30" as="alternateBounds" />
          </mxGeometry>
        </mxCell>
        <mxCell id="nvD61MG68NO_hjp8TIk3-280" value="" style="shape=tableRow;horizontal=0;startSize=0;swimlaneHead=0;swimlaneBody=0;fillColor=none;collapsible=0;dropTarget=0;points=[[0,0.5],[1,0.5]];portConstraint=eastwest;top=0;left=0;right=0;bottom=1;html=1;" vertex="1" parent="1">
          <mxGeometry x="1020" y="657" width="180" height="30" as="geometry" />
        </mxCell>
        <mxCell id="SXbonFGSMjLXgxzRvPNF-1" value="Quick Check:" style="text;html=1;align=center;verticalAlign=middle;resizable=0;points=[];autosize=1;strokeColor=none;fillColor=none;" vertex="1" parent="1">
          <mxGeometry x="730" y="150" width="90" height="30" as="geometry" />
        </mxCell>
        <mxCell id="SXbonFGSMjLXgxzRvPNF-3" value="Today" style="rounded=1;arcSize=9;fillColor=#ffffff;align=left;spacingLeft=5;strokeColor=#0057D8;html=1;strokeWidth=2;fontColor=#253858;fontSize=12" vertex="1" parent="1">
          <mxGeometry x="830" y="145" width="150" height="33" as="geometry" />
        </mxCell>
        <mxCell id="SXbonFGSMjLXgxzRvPNF-4" value="" style="shape=mxgraph.gmdl.calendar;fillColor=#253858;strokeColor=none" vertex="1" parent="SXbonFGSMjLXgxzRvPNF-3">
          <mxGeometry x="1" y="0.5" width="18" height="18" relative="1" as="geometry">
            <mxPoint x="-29" y="-9" as="offset" />
          </mxGeometry>
        </mxCell>
        <mxCell id="SXbonFGSMjLXgxzRvPNF-58" value="" style="shape=singleArrow;whiteSpace=wrap;html=1;container=0;" vertex="1" parent="1">
          <mxGeometry x="1420" y="145" width="90" height="40" as="geometry" />
        </mxCell>
        <mxCell id="SXbonFGSMjLXgxzRvPNF-64" value="" style="group" vertex="1" connectable="0" parent="1">
          <mxGeometry x="1000" y="140" width="200" height="50" as="geometry" />
        </mxCell>
        <mxCell id="SXbonFGSMjLXgxzRvPNF-59" value="You are on call!" style="rounded=0;whiteSpace=wrap;html=1;fillColor=#E8E3E3;strokeColor=#82b366;" vertex="1" parent="SXbonFGSMjLXgxzRvPNF-64">
          <mxGeometry width="200" height="50" as="geometry" />
        </mxCell>
        <mxCell id="SXbonFGSMjLXgxzRvPNF-60" value="" style="html=1;verticalLabelPosition=bottom;labelBackgroundColor=#ffffff;verticalAlign=top;shadow=0;dashed=0;strokeWidth=2;shape=mxgraph.ios7.misc.select;fillColor=#4AF06C;strokeColor=#ffffff;sketch=0;" vertex="1" parent="SXbonFGSMjLXgxzRvPNF-64">
          <mxGeometry x="5" y="9" width="30" height="32" as="geometry" />
        </mxCell>
        <mxCell id="SXbonFGSMjLXgxzRvPNF-65" value="" style="group" vertex="1" connectable="0" parent="1">
          <mxGeometry x="1210" y="140" width="200" height="50" as="geometry" />
        </mxCell>
        <mxCell id="SXbonFGSMjLXgxzRvPNF-61" value="Barabara is on call." style="rounded=0;whiteSpace=wrap;html=1;fillColor=#f8cecc;strokeColor=#b85450;container=0;" vertex="1" parent="SXbonFGSMjLXgxzRvPNF-65">
          <mxGeometry width="200" height="50" as="geometry" />
        </mxCell>
        <mxCell id="SXbonFGSMjLXgxzRvPNF-62" value="" style="shape=image;html=1;verticalAlign=top;verticalLabelPosition=bottom;labelBackgroundColor=#ffffff;imageAspect=0;aspect=fixed;image=https://cdn3.iconfinder.com/data/icons/miscellaneous-80/60/uncheck-128.png;container=0;" vertex="1" parent="SXbonFGSMjLXgxzRvPNF-65">
          <mxGeometry x="11" y="10" width="30" height="30" as="geometry" />
        </mxCell>
        <mxCell id="SXbonFGSMjLXgxzRvPNF-66" value="" style="group" vertex="1" connectable="0" parent="1">
          <mxGeometry x="1539" y="50" width="320" height="350" as="geometry" />
        </mxCell>
        <mxCell id="SXbonFGSMjLXgxzRvPNF-5" value="" style="shape=mxgraph.mockup.forms.rrect;rSize=5;strokeColor=#DFE1E5;fillColor=#ffffff;shadow=1;container=0;" vertex="1" parent="SXbonFGSMjLXgxzRvPNF-66">
          <mxGeometry width="320" height="350" as="geometry" />
        </mxCell>
        <mxCell id="SXbonFGSMjLXgxzRvPNF-6" value="November 2015" style="strokeColor=none;fillColor=none;fontColor=#253858;fontSize=16;fontStyle=1;container=0;" vertex="1" parent="SXbonFGSMjLXgxzRvPNF-66">
          <mxGeometry x="60" y="16" width="200" height="40" as="geometry" />
        </mxCell>
        <mxCell id="SXbonFGSMjLXgxzRvPNF-7" value="&lt;" style="strokeColor=none;fillColor=none;fontColor=#253858;fontSize=19;fontStyle=1;container=0;" vertex="1" parent="SXbonFGSMjLXgxzRvPNF-66">
          <mxGeometry x="16" y="16" width="50" height="40" as="geometry" />
        </mxCell>
        <mxCell id="SXbonFGSMjLXgxzRvPNF-8" value="&gt;" style="strokeColor=none;fillColor=none;fontColor=#253858;fontSize=19;fontStyle=1;container=0;" vertex="1" parent="SXbonFGSMjLXgxzRvPNF-66">
          <mxGeometry x="254" y="16" width="50" height="40" as="geometry" />
        </mxCell>
        <mxCell id="SXbonFGSMjLXgxzRvPNF-9" value="SUN" style="strokeColor=none;fillColor=none;fontColor=#999999;fontSize=12;fontStyle=1;container=0;" vertex="1" parent="SXbonFGSMjLXgxzRvPNF-66">
          <mxGeometry x="20" y="56" width="40" height="40" as="geometry" />
        </mxCell>
        <mxCell id="SXbonFGSMjLXgxzRvPNF-10" value="MON" style="strokeColor=none;fillColor=none;fontColor=#999999;fontSize=12;fontStyle=1;container=0;" vertex="1" parent="SXbonFGSMjLXgxzRvPNF-66">
          <mxGeometry x="60" y="56" width="40" height="40" as="geometry" />
        </mxCell>
        <mxCell id="SXbonFGSMjLXgxzRvPNF-11" value="TUE" style="strokeColor=none;fillColor=none;fontColor=#999999;fontSize=12;fontStyle=1;container=0;" vertex="1" parent="SXbonFGSMjLXgxzRvPNF-66">
          <mxGeometry x="100" y="56" width="40" height="40" as="geometry" />
        </mxCell>
        <mxCell id="SXbonFGSMjLXgxzRvPNF-12" value="WED" style="strokeColor=none;fillColor=none;fontColor=#999999;fontSize=12;fontStyle=1;container=0;" vertex="1" parent="SXbonFGSMjLXgxzRvPNF-66">
          <mxGeometry x="140" y="56" width="40" height="40" as="geometry" />
        </mxCell>
        <mxCell id="SXbonFGSMjLXgxzRvPNF-13" value="THU" style="strokeColor=none;fillColor=none;fontColor=#999999;fontSize=12;fontStyle=1;container=0;" vertex="1" parent="SXbonFGSMjLXgxzRvPNF-66">
          <mxGeometry x="180" y="56" width="40" height="40" as="geometry" />
        </mxCell>
        <mxCell id="SXbonFGSMjLXgxzRvPNF-14" value="FRI" style="strokeColor=none;fillColor=none;fontColor=#999999;fontSize=12;fontStyle=1;container=0;" vertex="1" parent="SXbonFGSMjLXgxzRvPNF-66">
          <mxGeometry x="220" y="56" width="40" height="40" as="geometry" />
        </mxCell>
        <mxCell id="SXbonFGSMjLXgxzRvPNF-15" value="SAT" style="strokeColor=none;fillColor=none;fontColor=#999999;fontSize=12;fontStyle=1;container=0;" vertex="1" parent="SXbonFGSMjLXgxzRvPNF-66">
          <mxGeometry x="260" y="56" width="40" height="40" as="geometry" />
        </mxCell>
        <mxCell id="SXbonFGSMjLXgxzRvPNF-16" value="31" style="strokeColor=none;fillColor=none;fontColor=#999999;fontSize=16;container=0;" vertex="1" parent="SXbonFGSMjLXgxzRvPNF-66">
          <mxGeometry x="20" y="96" width="40" height="40" as="geometry" />
        </mxCell>
        <mxCell id="SXbonFGSMjLXgxzRvPNF-17" value="1" style="strokeColor=none;fillColor=none;fontColor=#000000;fontSize=16;container=0;" vertex="1" parent="SXbonFGSMjLXgxzRvPNF-66">
          <mxGeometry x="60" y="96" width="40" height="40" as="geometry" />
        </mxCell>
        <mxCell id="SXbonFGSMjLXgxzRvPNF-18" value="2" style="strokeColor=none;fillColor=none;fontColor=#000000;fontSize=16;container=0;" vertex="1" parent="SXbonFGSMjLXgxzRvPNF-66">
          <mxGeometry x="100" y="96" width="40" height="40" as="geometry" />
        </mxCell>
        <mxCell id="SXbonFGSMjLXgxzRvPNF-19" value="3" style="strokeColor=none;fillColor=none;fontColor=#000000;fontSize=16;container=0;" vertex="1" parent="SXbonFGSMjLXgxzRvPNF-66">
          <mxGeometry x="140" y="96" width="40" height="40" as="geometry" />
        </mxCell>
        <mxCell id="SXbonFGSMjLXgxzRvPNF-20" value="4" style="strokeColor=none;fillColor=none;fontColor=#000000;fontSize=16;container=0;" vertex="1" parent="SXbonFGSMjLXgxzRvPNF-66">
          <mxGeometry x="180" y="96" width="40" height="40" as="geometry" />
        </mxCell>
        <mxCell id="SXbonFGSMjLXgxzRvPNF-21" value="5" style="strokeColor=none;fillColor=none;fontColor=#000000;fontSize=16;container=0;" vertex="1" parent="SXbonFGSMjLXgxzRvPNF-66">
          <mxGeometry x="220" y="96" width="40" height="40" as="geometry" />
        </mxCell>
        <mxCell id="SXbonFGSMjLXgxzRvPNF-22" value="6" style="strokeColor=none;fillColor=none;fontColor=#000000;fontSize=16;container=0;" vertex="1" parent="SXbonFGSMjLXgxzRvPNF-66">
          <mxGeometry x="260" y="96" width="40" height="40" as="geometry" />
        </mxCell>
        <mxCell id="SXbonFGSMjLXgxzRvPNF-23" value="7" style="strokeColor=none;fillColor=none;fontColor=#000000;fontSize=16;container=0;" vertex="1" parent="SXbonFGSMjLXgxzRvPNF-66">
          <mxGeometry x="20" y="136" width="40" height="40" as="geometry" />
        </mxCell>
        <mxCell id="SXbonFGSMjLXgxzRvPNF-24" value="8" style="strokeColor=none;fillColor=none;fontColor=#000000;fontSize=16;container=0;" vertex="1" parent="SXbonFGSMjLXgxzRvPNF-66">
          <mxGeometry x="60" y="136" width="40" height="40" as="geometry" />
        </mxCell>
        <mxCell id="SXbonFGSMjLXgxzRvPNF-25" value="9" style="strokeColor=none;fillColor=none;fontColor=#000000;fontSize=16;container=0;" vertex="1" parent="SXbonFGSMjLXgxzRvPNF-66">
          <mxGeometry x="100" y="136" width="40" height="40" as="geometry" />
        </mxCell>
        <mxCell id="SXbonFGSMjLXgxzRvPNF-26" value="10" style="strokeColor=none;fillColor=none;fontColor=#0057D8;fontSize=16;fontStyle=4;container=0;" vertex="1" parent="SXbonFGSMjLXgxzRvPNF-66">
          <mxGeometry x="140" y="136" width="40" height="40" as="geometry" />
        </mxCell>
        <mxCell id="SXbonFGSMjLXgxzRvPNF-27" value="11" style="strokeColor=none;fillColor=#ECEDF0;fontColor=#000000;fontSize=16;rounded=1;arcSize=10;container=0;" vertex="1" parent="SXbonFGSMjLXgxzRvPNF-66">
          <mxGeometry x="180" y="136" width="40" height="40" as="geometry" />
        </mxCell>
        <mxCell id="SXbonFGSMjLXgxzRvPNF-28" value="12" style="strokeColor=none;fillColor=none;fontColor=#000000;fontSize=16;container=0;" vertex="1" parent="SXbonFGSMjLXgxzRvPNF-66">
          <mxGeometry x="220" y="136" width="40" height="40" as="geometry" />
        </mxCell>
        <mxCell id="SXbonFGSMjLXgxzRvPNF-29" value="13" style="strokeColor=none;fillColor=none;fontColor=#000000;fontSize=16;container=0;" vertex="1" parent="SXbonFGSMjLXgxzRvPNF-66">
          <mxGeometry x="260" y="136" width="40" height="40" as="geometry" />
        </mxCell>
        <mxCell id="SXbonFGSMjLXgxzRvPNF-30" value="14" style="strokeColor=none;fillColor=none;fontColor=#000000;fontSize=16;container=0;" vertex="1" parent="SXbonFGSMjLXgxzRvPNF-66">
          <mxGeometry x="20" y="176" width="40" height="40" as="geometry" />
        </mxCell>
        <mxCell id="SXbonFGSMjLXgxzRvPNF-31" value="15" style="strokeColor=none;fillColor=none;fontColor=#000000;fontSize=16;container=0;" vertex="1" parent="SXbonFGSMjLXgxzRvPNF-66">
          <mxGeometry x="60" y="176" width="40" height="40" as="geometry" />
        </mxCell>
        <mxCell id="SXbonFGSMjLXgxzRvPNF-32" value="16" style="strokeColor=none;fillColor=none;fontColor=#000000;fontSize=16;container=0;" vertex="1" parent="SXbonFGSMjLXgxzRvPNF-66">
          <mxGeometry x="100" y="176" width="40" height="40" as="geometry" />
        </mxCell>
        <mxCell id="SXbonFGSMjLXgxzRvPNF-33" value="17" style="strokeColor=none;fillColor=none;fontColor=#000000;fontSize=16;container=0;" vertex="1" parent="SXbonFGSMjLXgxzRvPNF-66">
          <mxGeometry x="140" y="176" width="40" height="40" as="geometry" />
        </mxCell>
        <mxCell id="SXbonFGSMjLXgxzRvPNF-34" value="18" style="strokeColor=none;fillColor=none;fontColor=#000000;fontSize=16;container=0;" vertex="1" parent="SXbonFGSMjLXgxzRvPNF-66">
          <mxGeometry x="180" y="176" width="40" height="40" as="geometry" />
        </mxCell>
        <mxCell id="SXbonFGSMjLXgxzRvPNF-35" value="19" style="strokeColor=none;fillColor=none;fontColor=#000000;fontSize=16;container=0;" vertex="1" parent="SXbonFGSMjLXgxzRvPNF-66">
          <mxGeometry x="220" y="176" width="40" height="40" as="geometry" />
        </mxCell>
        <mxCell id="SXbonFGSMjLXgxzRvPNF-36" value="20" style="strokeColor=none;fillColor=none;fontColor=#000000;fontSize=16;container=0;" vertex="1" parent="SXbonFGSMjLXgxzRvPNF-66">
          <mxGeometry x="260" y="176" width="40" height="40" as="geometry" />
        </mxCell>
        <mxCell id="SXbonFGSMjLXgxzRvPNF-37" value="21" style="strokeColor=none;fillColor=none;fontColor=#000000;fontSize=16;container=0;" vertex="1" parent="SXbonFGSMjLXgxzRvPNF-66">
          <mxGeometry x="20" y="216" width="40" height="40" as="geometry" />
        </mxCell>
        <mxCell id="SXbonFGSMjLXgxzRvPNF-38" value="22" style="strokeColor=none;fillColor=none;fontColor=#000000;fontSize=16;container=0;" vertex="1" parent="SXbonFGSMjLXgxzRvPNF-66">
          <mxGeometry x="60" y="216" width="40" height="40" as="geometry" />
        </mxCell>
        <mxCell id="SXbonFGSMjLXgxzRvPNF-39" value="23" style="strokeColor=none;fillColor=none;fontColor=#999999;fontSize=16;container=0;" vertex="1" parent="SXbonFGSMjLXgxzRvPNF-66">
          <mxGeometry x="100" y="216" width="40" height="40" as="geometry" />
        </mxCell>
        <mxCell id="SXbonFGSMjLXgxzRvPNF-40" value="24" style="strokeColor=none;fillColor=none;fontColor=#000000;fontSize=16;container=0;" vertex="1" parent="SXbonFGSMjLXgxzRvPNF-66">
          <mxGeometry x="140" y="216" width="40" height="40" as="geometry" />
        </mxCell>
        <mxCell id="SXbonFGSMjLXgxzRvPNF-41" value="25" style="strokeColor=none;fillColor=none;fontColor=#000000;fontSize=16;container=0;" vertex="1" parent="SXbonFGSMjLXgxzRvPNF-66">
          <mxGeometry x="180" y="216" width="40" height="40" as="geometry" />
        </mxCell>
        <mxCell id="SXbonFGSMjLXgxzRvPNF-42" value="26" style="strokeColor=none;fillColor=none;fontColor=#000000;fontSize=16;container=0;" vertex="1" parent="SXbonFGSMjLXgxzRvPNF-66">
          <mxGeometry x="220" y="216" width="40" height="40" as="geometry" />
        </mxCell>
        <mxCell id="SXbonFGSMjLXgxzRvPNF-43" value="27" style="strokeColor=none;fillColor=none;fontColor=#000000;fontSize=16;container=0;" vertex="1" parent="SXbonFGSMjLXgxzRvPNF-66">
          <mxGeometry x="260" y="216" width="40" height="40" as="geometry" />
        </mxCell>
        <mxCell id="SXbonFGSMjLXgxzRvPNF-44" value="28" style="strokeColor=none;fillColor=none;fontColor=#000000;fontSize=16;container=0;" vertex="1" parent="SXbonFGSMjLXgxzRvPNF-66">
          <mxGeometry x="20" y="256" width="40" height="40" as="geometry" />
        </mxCell>
        <mxCell id="SXbonFGSMjLXgxzRvPNF-45" value="29" style="strokeColor=none;fillColor=none;fontColor=#000000;fontSize=16;container=0;" vertex="1" parent="SXbonFGSMjLXgxzRvPNF-66">
          <mxGeometry x="60" y="256" width="40" height="40" as="geometry" />
        </mxCell>
        <mxCell id="SXbonFGSMjLXgxzRvPNF-46" value="30" style="strokeColor=none;fillColor=none;fontColor=#000000;fontSize=16;container=0;" vertex="1" parent="SXbonFGSMjLXgxzRvPNF-66">
          <mxGeometry x="100" y="256" width="40" height="40" as="geometry" />
        </mxCell>
        <mxCell id="SXbonFGSMjLXgxzRvPNF-47" value="1" style="strokeColor=none;fillColor=none;fontColor=#999999;fontSize=16;container=0;" vertex="1" parent="SXbonFGSMjLXgxzRvPNF-66">
          <mxGeometry x="140" y="256" width="40" height="40" as="geometry" />
        </mxCell>
        <mxCell id="SXbonFGSMjLXgxzRvPNF-48" value="2" style="strokeColor=none;fillColor=none;fontColor=#999999;fontSize=16;container=0;" vertex="1" parent="SXbonFGSMjLXgxzRvPNF-66">
          <mxGeometry x="180" y="256" width="40" height="40" as="geometry" />
        </mxCell>
        <mxCell id="SXbonFGSMjLXgxzRvPNF-49" value="3" style="strokeColor=none;fillColor=none;fontColor=#999999;fontSize=16;container=0;" vertex="1" parent="SXbonFGSMjLXgxzRvPNF-66">
          <mxGeometry x="220" y="256" width="40" height="40" as="geometry" />
        </mxCell>
        <mxCell id="SXbonFGSMjLXgxzRvPNF-50" value="4" style="strokeColor=none;fillColor=none;fontColor=#999999;fontSize=16;container=0;" vertex="1" parent="SXbonFGSMjLXgxzRvPNF-66">
          <mxGeometry x="260" y="256" width="40" height="40" as="geometry" />
        </mxCell>
        <mxCell id="SXbonFGSMjLXgxzRvPNF-51" value="5" style="strokeColor=none;fillColor=none;fontColor=#999999;fontSize=16;container=0;" vertex="1" parent="SXbonFGSMjLXgxzRvPNF-66">
          <mxGeometry x="20" y="296" width="40" height="40" as="geometry" />
        </mxCell>
        <mxCell id="SXbonFGSMjLXgxzRvPNF-52" value="6" style="strokeColor=none;fillColor=none;fontColor=#999999;fontSize=16;container=0;" vertex="1" parent="SXbonFGSMjLXgxzRvPNF-66">
          <mxGeometry x="60" y="296" width="40" height="40" as="geometry" />
        </mxCell>
        <mxCell id="SXbonFGSMjLXgxzRvPNF-53" value="7" style="strokeColor=none;fillColor=none;fontColor=#999999;fontSize=16;container=0;" vertex="1" parent="SXbonFGSMjLXgxzRvPNF-66">
          <mxGeometry x="100" y="296" width="40" height="40" as="geometry" />
        </mxCell>
        <mxCell id="SXbonFGSMjLXgxzRvPNF-54" value="8" style="strokeColor=none;fillColor=none;fontColor=#999999;fontSize=16;container=0;" vertex="1" parent="SXbonFGSMjLXgxzRvPNF-66">
          <mxGeometry x="140" y="296" width="40" height="40" as="geometry" />
        </mxCell>
        <mxCell id="SXbonFGSMjLXgxzRvPNF-55" value="9" style="strokeColor=none;fillColor=none;fontColor=#999999;fontSize=16;container=0;" vertex="1" parent="SXbonFGSMjLXgxzRvPNF-66">
          <mxGeometry x="180" y="296" width="40" height="40" as="geometry" />
        </mxCell>
        <mxCell id="SXbonFGSMjLXgxzRvPNF-56" value="10" style="strokeColor=none;fillColor=none;fontColor=#999999;fontSize=16;container=0;" vertex="1" parent="SXbonFGSMjLXgxzRvPNF-66">
          <mxGeometry x="220" y="296" width="40" height="40" as="geometry" />
        </mxCell>
        <mxCell id="SXbonFGSMjLXgxzRvPNF-57" value="11" style="strokeColor=none;fillColor=none;fontColor=#999999;fontSize=16;container=0;" vertex="1" parent="SXbonFGSMjLXgxzRvPNF-66">
          <mxGeometry x="260" y="296" width="40" height="40" as="geometry" />
        </mxCell>
        <mxCell id="SXbonFGSMjLXgxzRvPNF-67" value="" style="group;fillColor=none;strokeColor=none;fontColor=none;noLabel=1;" vertex="1" connectable="0" parent="1">
          <mxGeometry x="1210" y="210" width="200" height="50" as="geometry" />
        </mxCell>
        <mxCell id="SXbonFGSMjLXgxzRvPNF-68" value="Slot not covered" style="rounded=0;whiteSpace=wrap;html=1;fillColor=#f8cecc;strokeColor=#b85450;container=0;" vertex="1" parent="SXbonFGSMjLXgxzRvPNF-67">
          <mxGeometry width="200" height="50" as="geometry" />
        </mxCell>
        <mxCell id="SXbonFGSMjLXgxzRvPNF-71" value="" style="shape=image;html=1;verticalAlign=top;verticalLabelPosition=bottom;labelBackgroundColor=#ffffff;imageAspect=0;aspect=fixed;image=https://cdn4.iconfinder.com/data/icons/aiga-symbol-signs/444/aiga_information-128.png" vertex="1" parent="SXbonFGSMjLXgxzRvPNF-67">
          <mxGeometry x="11" y="5" width="40" height="40" as="geometry" />
        </mxCell>
      </root>
    </mxGraphModel>
  </diagram>
  <diagram id="KHzxxjG_k5JSKqEgGlmv" name="Staff">
    <mxGraphModel dx="1434" dy="707" grid="1" gridSize="10" guides="1" tooltips="1" connect="1" arrows="1" fold="1" page="1" pageScale="1" pageWidth="850" pageHeight="1100" math="0" shadow="0">
      <root>
        <mxCell id="0" />
        <mxCell id="1" parent="0" />
      </root>
    </mxGraphModel>
  </diagram>
</mxfile>
